{
	"asset":{
		"generator":"Khronos glTF Blender I/O v5.1.19",
		"version":"2.0"
	},
	"scene":0,
	"scenes":[
		{
			"name":"Scene",
			"nodes":[
				0,
				1,
				2,
				3,
				4,
				5,
				6,
				7,
				8,
				9,
				10,
				11,
				12,
				13,
				14,
				15,
				16,
				17,
				18,
				26,
				27,
				28,
				29,
				30,
				31,
				32,
				33,
				34,
				35,
				36,
				43,
				44,
				45,
				46,
				47,
				48,
				49
			]
		}
	],
	"nodes":[
		{
			"mesh":0,
			"name":"ForestBridgeWide",
			"translation":[
				2.914987564086914,
				-1.9205913543701172,
				-9.716110229492188
			]
		},
		{
			"mesh":1,
			"name":"ForestGrass01",
			"translation":[
				4.870527267456055,
				0.17192554473876953,
				1.965378761291504
			]
		},
		{
			"mesh":2,
			"name":"ForestGroundDirt",
			"translation":[
				-2.8835697174072266,
				1.7602577209472656,
				-8.507827758789062
			]
		},
		{
			"mesh":3,
			"name":"ForestGround02",
			"translation":[
				-0.7291622161865234,
				3.9988956451416016,
				-8.507827758789062
			]
		},
		{
			"mesh":4,
			"name":"ForestTreeAppleTall",
			"translation":[
				-6.603366851806641,
				-1.7383480072021484,
				-14.068260192871094
			]
		},
		{
			"mesh":5,
			"name":"ForestTreeDTall",
			"translation":[
				-4.659809112548828,
				-1.7383480072021484,
				-14.068260192871094
			]
		},
		{
			"mesh":6,
			"name":"ForestTreeApplesShort",
			"translation":[
				-2.659811019897461,
				-1.7383480072021484,
				-14.068260192871094
			]
		},
		{
			"mesh":7,
			"name":"ForestCubeDark.002",
			"rotation":[
				0.70710688829422,
				0,
				0,
				0.7071066498756409
			],
			"scale":[
				0.4999999701976776,
				0.4999999701976776,
				0.4999999701976776
			],
			"translation":[
				7.113836288452148,
				-0.7473154067993164,
				15.786693572998047
			]
		},
		{
			"mesh":8,
			"name":"ForestCubeLight.002",
			"rotation":[
				0.70710688829422,
				0,
				0,
				0.7071066498756409
			],
			"scale":[
				0.4999999701976776,
				0.4999999701976776,
				0.4999999701976776
			],
			"translation":[
				5.425701141357422,
				-0.7473154067993164,
				15.786693572998047
			]
		},
		{
			"mesh":9,
			"name":"ForestCubeDark.001",
			"rotation":[
				0.70710688829422,
				0,
				0,
				0.7071066498756409
			],
			"scale":[
				1,
				1,
				0.4999999701976776
			],
			"translation":[
				7.570398330688477,
				-0.7473154067993164,
				13.744937896728516
			]
		},
		{
			"mesh":10,
			"name":"ForestCubeLight.001",
			"rotation":[
				0.70710688829422,
				0,
				0,
				0.7071066498756409
			],
			"scale":[
				1,
				1,
				0.4999999701976776
			],
			"translation":[
				4.9556427001953125,
				-0.7473154067993164,
				13.744937896728516
			]
		},
		{
			"mesh":11,
			"name":"ForestCubeLight",
			"rotation":[
				0.70710688829422,
				0,
				0,
				0.7071066498756409
			],
			"translation":[
				4.9556427001953125,
				-0.7473154067993164,
				11
			]
		},
		{
			"mesh":12,
			"name":"ForestCastleWindow",
			"translation":[
				-4.527778625488281,
				7.252683639526367,
				-7
			]
		},
		{
			"mesh":13,
			"name":"ForestTreeDShort",
			"translation":[
				-2.5997180938720703,
				2.225778579711914,
				-14.068260192871094
			]
		},
		{
			"mesh":14,
			"name":"ForestTower",
			"translation":[
				1.9175300598144531,
				-0.40697669982910156,
				-15.211095809936523
			]
		},
		{
			"mesh":15,
			"name":"ForestLadderExtra",
			"translation":[
				-0.4895610809326172,
				-0.24765872955322266,
				-0.6999998092651367
			]
		},
		{
			"mesh":16,
			"name":"ForestLadder",
			"translation":[
				-0.5058174133300781,
				-0.2473163604736328,
				-2.233091354370117
			]
		},
		{
			"mesh":17,
			"name":"ForestGround01",
			"translation":[
				-2.8835697174072266,
				3.9988956451416016,
				-8.507827758789062
			]
		},
		{
			"mesh":18,
			"name":"ForestGrass01.001",
			"translation":[
				3.6250877380371094,
				0.1540517807006836,
				2.259829521179199
			]
		},
		{
			"name":"Bone.003_end",
			"rotation":[
				-2.9802318834981634e-08,
				1.3591562542103475e-08,
				3.957534300269572e-11,
				1
			],
			"translation":[
				-4.163822495684144e-07,
				0.2603643536567688,
				2.2704978164256318e-07
			]
		},
		{
			"children":[
				19
			],
			"name":"Bone.003",
			"rotation":[
				1.7508864402770996e-07,
				-4.6857486779572355e-08,
				6.041099565035069e-11,
				1
			],
			"translation":[
				-3.3277638067374937e-07,
				0.2849268913269043,
				-1.0989300136543534e-08
			]
		},
		{
			"children":[
				20
			],
			"name":"Bone.002",
			"rotation":[
				-2.980232238769531e-07,
				3.0951832741266116e-07,
				-5.554111615069246e-10,
				1
			],
			"translation":[
				3.527529486291314e-07,
				0.30457714200019836,
				3.1773652153788134e-08
			]
		},
		{
			"children":[
				21
			],
			"name":"Bone.001",
			"rotation":[
				-0.004576070699840784,
				0.7070913314819336,
				0.004575560800731182,
				0.7070926427841187
			],
			"scale":[
				1,
				1.0000001192092896,
				1
			],
			"translation":[
				6.027966037436272e-08,
				0.20518459379673004,
				-2.8607331614693976e-07
			]
		},
		{
			"children":[
				22
			],
			"name":"Bone",
			"rotation":[
				3.388861671282939e-07,
				-1.5870133651674223e-08,
				0.03715325519442558,
				0.9993095993995667
			],
			"scale":[
				0.9999998807907104,
				1,
				1.0000001192092896
			],
			"translation":[
				1.8271830081939697,
				0.15481288731098175,
				-0.008925412781536579
			]
		},
		{
			"name":"neutral_bone",
			"rotation":[
				-0.7071067690849304,
				0,
				0,
				0.7071067690849304
			]
		},
		{
			"mesh":19,
			"name":"ForestFlag",
			"skin":0
		},
		{
			"children":[
				25,
				23,
				24
			],
			"name":"FlagArm",
			"rotation":[
				-0.6755901575088501,
				-0.7372773885726929,
				0,
				7.919453537397203e-08
			],
			"translation":[
				2,
				-3,
				-5
			]
		},
		{
			"mesh":20,
			"name":"ForestCastleDoorR",
			"translation":[
				-3.549570083618164,
				-0.2570209503173828,
				-6.68341064453125
			]
		},
		{
			"mesh":21,
			"name":"ForestCastleDoorL",
			"translation":[
				-7.201013565063477,
				-0.2570199966430664,
				-7.682945251464844
			]
		},
		{
			"mesh":22,
			"name":"ForestCrate",
			"translation":[
				2.194570541381836,
				-0.7489414215087891,
				-5.066638946533203
			]
		},
		{
			"mesh":23,
			"name":"Cube.016",
			"translation":[
				0.6331138610839844,
				0.6190357208251953,
				-1.9164905548095703
			]
		},
		{
			"mesh":24,
			"name":"ForestChestTop",
			"translation":[
				-1.614522933959961,
				-0.15729618072509766,
				0.9035110473632812
			]
		},
		{
			"mesh":25,
			"name":"ForestChestBottom",
			"translation":[
				-1.6158332824707031,
				-0.4266805648803711,
				1.3524065017700195
			]
		},
		{
			"mesh":26,
			"name":"ForestCastle",
			"translation":[
				9.118183135986328,
				-0.7473163604736328,
				-13.23263168334961
			]
		},
		{
			"mesh":27,
			"name":"Cube.004",
			"translation":[
				3.979278564453125,
				-1.1594181060791016,
				-6.7161102294921875
			]
		},
		{
			"mesh":28,
			"name":"ForestBrazzier",
			"translation":[
				2.9634780883789062,
				-0.7473163604736328,
				-2.797334671020508
			]
		},
		{
			"mesh":29,
			"name":"ForestBarrel",
			"translation":[
				7.4325408935546875,
				-0.6407833099365234,
				-2.867417335510254
			]
		},
		{
			"name":"Bone.002_end",
			"rotation":[
				3.9047876043696306e-11,
				3.5527141023169746e-15,
				5.113583430595126e-16,
				1
			],
			"translation":[
				-1.9867187006639142e-07,
				0.37249699234962463,
				9.537823189020855e-07
			]
		},
		{
			"children":[
				37
			],
			"name":"Bone.002",
			"rotation":[
				-3.539568638188939e-11,
				1.8723707743858362e-21,
				-9.53756388102911e-15,
				1
			],
			"translation":[
				-1.9867187006639142e-07,
				0.30305802822113037,
				8.64900357555598e-07
			]
		},
		{
			"children":[
				38
			],
			"name":"Bone.001",
			"rotation":[
				1.032513878840291e-07,
				8.742279078433057e-08,
				9.026525187028067e-15,
				1
			],
			"translation":[
				-2.781652028716053e-07,
				0.36567452549934387,
				-2.92506854293606e-08
			]
		},
		{
			"children":[
				39
			],
			"name":"Bone",
			"rotation":[
				1,
				-6.1629888543327134e-15,
				-4.3711398944878965e-08,
				1.5990332258297713e-07
			],
			"translation":[
				0.014460086822509766,
				-0.053699977695941925,
				0.00026749688549898565
			]
		},
		{
			"name":"neutral_bone",
			"rotation":[
				-0.7071067690849304,
				0,
				0,
				0.7071067690849304
			]
		},
		{
			"mesh":30,
			"name":"ForestBanner",
			"skin":1
		},
		{
			"children":[
				42,
				40,
				41
			],
			"name":"ForestBanner.001",
			"translation":[
				-3,
				0,
				-5
			]
		},
		{
			"mesh":31,
			"name":"ForestCatapultWheel",
			"rotation":[
				0.7071068286895752,
				0,
				0,
				0.7071068286895752
			],
			"translation":[
				-0.4013233184814453,
				2.501152992248535,
				-0.19972991943359375
			]
		},
		{
			"mesh":32,
			"name":"ForestTreePineShort",
			"translation":[
				-11.79638671875,
				-0.1429615020751953,
				-18.06918716430664
			]
		},
		{
			"mesh":33,
			"name":"ForestTreePineTall",
			"translation":[
				-9.79638671875,
				-0.1429615020751953,
				-18.06918716430664
			]
		},
		{
			"mesh":34,
			"name":"ForestCatapultBase",
			"translation":[
				-1.97735595703125,
				2.6138906478881836,
				-2.026884078979492
			]
		},
		{
			"mesh":35,
			"name":"ForestCannonBall",
			"translation":[
				-1.9722900390625,
				3.824361801147461,
				0.780914306640625
			]
		},
		{
			"mesh":36,
			"name":"ForestCatapultArm",
			"translation":[
				-1.9757308959960938,
				3.644926071166992,
				-2.5037078857421875
			]
		}
	],
	"animations":[
		{
			"channels":[
				{
					"sampler":0,
					"target":{
						"node":23,
						"path":"translation"
					}
				},
				{
					"sampler":1,
					"target":{
						"node":23,
						"path":"rotation"
					}
				},
				{
					"sampler":2,
					"target":{
						"node":23,
						"path":"scale"
					}
				},
				{
					"sampler":3,
					"target":{
						"node":22,
						"path":"translation"
					}
				},
				{
					"sampler":4,
					"target":{
						"node":22,
						"path":"rotation"
					}
				},
				{
					"sampler":5,
					"target":{
						"node":22,
						"path":"scale"
					}
				},
				{
					"sampler":6,
					"target":{
						"node":21,
						"path":"translation"
					}
				},
				{
					"sampler":7,
					"target":{
						"node":21,
						"path":"rotation"
					}
				},
				{
					"sampler":8,
					"target":{
						"node":21,
						"path":"scale"
					}
				},
				{
					"sampler":9,
					"target":{
						"node":20,
						"path":"translation"
					}
				},
				{
					"sampler":10,
					"target":{
						"node":20,
						"path":"rotation"
					}
				},
				{
					"sampler":11,
					"target":{
						"node":20,
						"path":"scale"
					}
				},
				{
					"sampler":12,
					"target":{
						"node":19,
						"path":"translation"
					}
				},
				{
					"sampler":13,
					"target":{
						"node":19,
						"path":"rotation"
					}
				},
				{
					"sampler":14,
					"target":{
						"node":19,
						"path":"scale"
					}
				}
			],
			"name":"FlagArm|FlagArm|ArmatureAction|FlagArm|ArmatureAction",
			"samplers":[
				{
					"input":152,
					"interpolation":"STEP",
					"output":153
				},
				{
					"input":154,
					"interpolation":"LINEAR",
					"output":155
				},
				{
					"input":152,
					"interpolation":"LINEAR",
					"output":156
				},
				{
					"input":152,
					"interpolation":"LINEAR",
					"output":157
				},
				{
					"input":154,
					"interpolation":"LINEAR",
					"output":158
				},
				{
					"input":152,
					"interpolation":"STEP",
					"output":159
				},
				{
					"input":152,
					"interpolation":"LINEAR",
					"output":160
				},
				{
					"input":154,
					"interpolation":"LINEAR",
					"output":161
				},
				{
					"input":152,
					"interpolation":"LINEAR",
					"output":162
				},
				{
					"input":152,
					"interpolation":"STEP",
					"output":163
				},
				{
					"input":152,
					"interpolation":"STEP",
					"output":164
				},
				{
					"input":152,
					"interpolation":"STEP",
					"output":165
				},
				{
					"input":152,
					"interpolation":"STEP",
					"output":166
				},
				{
					"input":152,
					"interpolation":"STEP",
					"output":167
				},
				{
					"input":152,
					"interpolation":"STEP",
					"output":168
				}
			]
		},
		{
			"channels":[
				{
					"sampler":0,
					"target":{
						"node":40,
						"path":"translation"
					}
				},
				{
					"sampler":1,
					"target":{
						"node":40,
						"path":"rotation"
					}
				},
				{
					"sampler":2,
					"target":{
						"node":40,
						"path":"scale"
					}
				},
				{
					"sampler":3,
					"target":{
						"node":39,
						"path":"translation"
					}
				},
				{
					"sampler":4,
					"target":{
						"node":39,
						"path":"rotation"
					}
				},
				{
					"sampler":5,
					"target":{
						"node":39,
						"path":"scale"
					}
				},
				{
					"sampler":6,
					"target":{
						"node":38,
						"path":"translation"
					}
				},
				{
					"sampler":7,
					"target":{
						"node":38,
						"path":"rotation"
					}
				},
				{
					"sampler":8,
					"target":{
						"node":38,
						"path":"scale"
					}
				},
				{
					"sampler":9,
					"target":{
						"node":37,
						"path":"translation"
					}
				},
				{
					"sampler":10,
					"target":{
						"node":37,
						"path":"rotation"
					}
				},
				{
					"sampler":11,
					"target":{
						"node":37,
						"path":"scale"
					}
				}
			],
			"name":"Armature.001|Armature|ArmatureAction|Armature|ArmatureAction",
			"samplers":[
				{
					"input":152,
					"interpolation":"STEP",
					"output":169
				},
				{
					"input":154,
					"interpolation":"LINEAR",
					"output":170
				},
				{
					"input":152,
					"interpolation":"LINEAR",
					"output":171
				},
				{
					"input":152,
					"interpolation":"LINEAR",
					"output":172
				},
				{
					"input":154,
					"interpolation":"LINEAR",
					"output":173
				},
				{
					"input":152,
					"interpolation":"STEP",
					"output":168
				},
				{
					"input":152,
					"interpolation":"LINEAR",
					"output":174
				},
				{
					"input":154,
					"interpolation":"LINEAR",
					"output":175
				},
				{
					"input":152,
					"interpolation":"STEP",
					"output":168
				},
				{
					"input":152,
					"interpolation":"STEP",
					"output":176
				},
				{
					"input":152,
					"interpolation":"STEP",
					"output":177
				},
				{
					"input":152,
					"interpolation":"STEP",
					"output":168
				}
			]
		}
	],
	"materials":[
		{
			"doubleSided":true,
			"name":"MainMaterial",
			"pbrMetallicRoughness":{
				"baseColorFactor":[
					0.800000011920929,
					0.800000011920929,
					0.800000011920929,
					1
				],
				"metallicFactor":0,
				"roughnessFactor":0.5
			}
		},
		{
			"doubleSided":true,
			"name":"Material.001",
			"pbrMetallicRoughness":{
				"baseColorFactor":[
					0.800000011920929,
					0.800000011920929,
					0.800000011920929,
					1
				],
				"metallicFactor":0,
				"roughnessFactor":0.5
			}
		}
	],
	"meshes":[
		{
			"name":"Cube.071",
			"primitives":[
				{
					"attributes":{
						"POSITION":0,
						"NORMAL":1,
						"TEXCOORD_0":2
					},
					"indices":3,
					"material":0
				}
			]
		},
		{
			"name":"Cube.066",
			"primitives":[
				{
					"attributes":{
						"POSITION":4,
						"NORMAL":5,
						"TEXCOORD_0":6,
						"COLOR_0":7,
						"COLOR_1":8
					},
					"indices":9,
					"material":0
				}
			]
		},
		{
			"name":"Cube.065",
			"primitives":[
				{
					"attributes":{
						"POSITION":10,
						"NORMAL":11,
						"TEXCOORD_0":12
					},
					"indices":13,
					"material":0
				}
			]
		},
		{
			"name":"Cube.064",
			"primitives":[
				{
					"attributes":{
						"POSITION":14,
						"NORMAL":15,
						"TEXCOORD_0":16
					},
					"indices":17,
					"material":0
				}
			]
		},
		{
			"name":"Cube.062",
			"primitives":[
				{
					"attributes":{
						"POSITION":18,
						"NORMAL":19,
						"TEXCOORD_0":20
					},
					"indices":21,
					"material":0
				}
			]
		},
		{
			"name":"Cube.061",
			"primitives":[
				{
					"attributes":{
						"POSITION":22,
						"NORMAL":23,
						"TEXCOORD_0":24
					},
					"indices":25,
					"material":0
				}
			]
		},
		{
			"name":"Cube.060",
			"primitives":[
				{
					"attributes":{
						"POSITION":26,
						"NORMAL":27,
						"TEXCOORD_0":28
					},
					"indices":29,
					"material":0
				}
			]
		},
		{
			"name":"Cube.058",
			"primitives":[
				{
					"attributes":{
						"POSITION":30,
						"NORMAL":31,
						"TEXCOORD_0":32
					},
					"indices":33,
					"material":1
				}
			]
		},
		{
			"name":"Cube.057",
			"primitives":[
				{
					"attributes":{
						"POSITION":34,
						"NORMAL":35,
						"TEXCOORD_0":36
					},
					"indices":33,
					"material":1
				}
			]
		},
		{
			"name":"Cube.056",
			"primitives":[
				{
					"attributes":{
						"POSITION":37,
						"NORMAL":38,
						"TEXCOORD_0":39
					},
					"indices":33,
					"material":1
				}
			]
		},
		{
			"name":"Cube.055",
			"primitives":[
				{
					"attributes":{
						"POSITION":40,
						"NORMAL":41,
						"TEXCOORD_0":42
					},
					"indices":33,
					"material":1
				}
			]
		},
		{
			"name":"Cube.054",
			"primitives":[
				{
					"attributes":{
						"POSITION":43,
						"NORMAL":44,
						"TEXCOORD_0":45
					},
					"indices":33,
					"material":0
				}
			]
		},
		{
			"name":"Cube.053",
			"primitives":[
				{
					"attributes":{
						"POSITION":46,
						"NORMAL":47,
						"TEXCOORD_0":48
					},
					"indices":49,
					"material":0
				}
			]
		},
		{
			"name":"Cube.050",
			"primitives":[
				{
					"attributes":{
						"POSITION":50,
						"NORMAL":51,
						"TEXCOORD_0":52
					},
					"indices":53,
					"material":0
				}
			]
		},
		{
			"name":"Cube.049",
			"primitives":[
				{
					"attributes":{
						"POSITION":54,
						"NORMAL":55,
						"TEXCOORD_0":56
					},
					"indices":57,
					"material":0
				}
			]
		},
		{
			"name":"Cube.048",
			"primitives":[
				{
					"attributes":{
						"POSITION":58,
						"NORMAL":59,
						"TEXCOORD_0":60
					},
					"indices":61,
					"material":0
				}
			]
		},
		{
			"name":"Cube.047",
			"primitives":[
				{
					"attributes":{
						"POSITION":62,
						"NORMAL":63,
						"TEXCOORD_0":64
					},
					"indices":65,
					"material":0
				}
			]
		},
		{
			"name":"Cube.046",
			"primitives":[
				{
					"attributes":{
						"POSITION":66,
						"NORMAL":67,
						"TEXCOORD_0":68
					},
					"indices":17,
					"material":0
				}
			]
		},
		{
			"name":"Cube.045",
			"primitives":[
				{
					"attributes":{
						"POSITION":69,
						"NORMAL":70,
						"TEXCOORD_0":71
					},
					"indices":9,
					"material":0
				}
			]
		},
		{
			"name":"Cube.044",
			"primitives":[
				{
					"attributes":{
						"POSITION":72,
						"NORMAL":73,
						"TEXCOORD_0":74,
						"JOINTS_0":75,
						"WEIGHTS_0":76
					},
					"indices":77,
					"material":0
				}
			]
		},
		{
			"name":"Cube.043",
			"primitives":[
				{
					"attributes":{
						"POSITION":79,
						"NORMAL":80,
						"TEXCOORD_0":81
					},
					"indices":82,
					"material":0
				}
			]
		},
		{
			"name":"Cube.042",
			"primitives":[
				{
					"attributes":{
						"POSITION":83,
						"NORMAL":84,
						"TEXCOORD_0":85
					},
					"indices":86,
					"material":0
				}
			]
		},
		{
			"name":"Cube.041",
			"primitives":[
				{
					"attributes":{
						"POSITION":87,
						"NORMAL":88,
						"TEXCOORD_0":89
					},
					"indices":90,
					"material":0
				}
			]
		},
		{
			"name":"Cube.040",
			"primitives":[
				{
					"attributes":{
						"POSITION":91,
						"NORMAL":92,
						"TEXCOORD_0":93
					},
					"indices":94,
					"material":0
				}
			]
		},
		{
			"name":"Cube.039",
			"primitives":[
				{
					"attributes":{
						"POSITION":95,
						"NORMAL":96,
						"TEXCOORD_0":97,
						"COLOR_0":98,
						"COLOR_1":99
					},
					"indices":100,
					"material":0
				}
			]
		},
		{
			"name":"Cube.038",
			"primitives":[
				{
					"attributes":{
						"POSITION":101,
						"NORMAL":102,
						"TEXCOORD_0":103
					},
					"indices":104,
					"material":0
				}
			]
		},
		{
			"name":"Cube.030",
			"primitives":[
				{
					"attributes":{
						"POSITION":105,
						"NORMAL":106,
						"TEXCOORD_0":107
					},
					"indices":108,
					"material":0
				}
			]
		},
		{
			"name":"Cube.029",
			"primitives":[
				{
					"attributes":{
						"POSITION":109,
						"NORMAL":110,
						"TEXCOORD_0":111
					},
					"indices":112,
					"material":0
				}
			]
		},
		{
			"name":"Cube.024",
			"primitives":[
				{
					"attributes":{
						"POSITION":113,
						"NORMAL":114,
						"TEXCOORD_0":115
					},
					"indices":116,
					"material":0
				}
			]
		},
		{
			"name":"Cylinder.004",
			"primitives":[
				{
					"attributes":{
						"POSITION":117,
						"NORMAL":118,
						"TEXCOORD_0":119
					},
					"indices":120,
					"material":0
				}
			]
		},
		{
			"name":"Cube.001",
			"primitives":[
				{
					"attributes":{
						"POSITION":121,
						"NORMAL":122,
						"TEXCOORD_0":123,
						"JOINTS_0":124,
						"WEIGHTS_0":125
					},
					"indices":126,
					"material":0
				}
			]
		},
		{
			"name":"Cube.051",
			"primitives":[
				{
					"attributes":{
						"POSITION":128,
						"NORMAL":129,
						"TEXCOORD_0":130
					},
					"indices":131,
					"material":0
				}
			]
		},
		{
			"name":"Cylinder.008",
			"primitives":[
				{
					"attributes":{
						"POSITION":132,
						"NORMAL":133,
						"TEXCOORD_0":134
					},
					"indices":135,
					"material":0
				}
			]
		},
		{
			"name":"Cylinder.005",
			"primitives":[
				{
					"attributes":{
						"POSITION":136,
						"NORMAL":137,
						"TEXCOORD_0":138
					},
					"indices":139,
					"material":0
				}
			]
		},
		{
			"name":"Cube.068",
			"primitives":[
				{
					"attributes":{
						"POSITION":140,
						"NORMAL":141,
						"TEXCOORD_0":142
					},
					"indices":143,
					"material":0
				}
			]
		},
		{
			"name":"Sphere",
			"primitives":[
				{
					"attributes":{
						"POSITION":144,
						"NORMAL":145,
						"TEXCOORD_0":146
					},
					"indices":147,
					"material":0
				}
			]
		},
		{
			"name":"Cube.059",
			"primitives":[
				{
					"attributes":{
						"POSITION":148,
						"NORMAL":149,
						"TEXCOORD_0":150
					},
					"indices":151,
					"material":0
				}
			]
		}
	],
	"skins":[
		{
			"inverseBindMatrices":78,
			"joints":[
				23,
				22,
				21,
				20,
				19,
				24
			],
			"name":"FlagArm"
		},
		{
			"inverseBindMatrices":127,
			"joints":[
				40,
				39,
				38,
				37,
				41
			],
			"name":"ForestBanner.001"
		}
	],
	"accessors":[
		{
			"bufferView":0,
			"componentType":5126,
			"count":332,
			"max":[
				2.083690643310547,
				0.33050471544265747,
				1.0000001192092896
			],
			"min":[
				-1.9163099527359009,
				-0.4792461395263672,
				-1.0000001192092896
			],
			"type":"VEC3"
		},
		{
			"bufferView":1,
			"componentType":5126,
			"count":332,
			"type":"VEC3"
		},
		{
			"bufferView":2,
			"componentType":5126,
			"count":332,
			"type":"VEC2"
		},
		{
			"bufferView":3,
			"componentType":5123,
			"count":564,
			"type":"SCALAR"
		},
		{
			"bufferView":4,
			"componentType":5126,
			"count":200,
			"max":[
				0.5048382878303528,
				1.157915711402893,
				0.5133206844329834
			],
			"min":[
				-0.4737224280834198,
				-0.23719942569732666,
				-0.5043832659721375
			],
			"type":"VEC3"
		},
		{
			"bufferView":5,
			"componentType":5126,
			"count":200,
			"type":"VEC3"
		},
		{
			"bufferView":6,
			"componentType":5126,
			"count":200,
			"type":"VEC2"
		},
		{
			"bufferView":7,
			"componentType":5121,
			"count":200,
			"normalized":true,
			"type":"VEC4"
		},
		{
			"bufferView":8,
			"componentType":5123,
			"count":200,
			"normalized":true,
			"type":"VEC4"
		},
		{
			"bufferView":9,
			"componentType":5123,
			"count":450,
			"type":"SCALAR"
		},
		{
			"bufferView":10,
			"componentType":5126,
			"count":24,
			"max":[
				0.9999989867210388,
				1,
				1.000000238418579
			],
			"min":[
				-1.0000008344650269,
				-1,
				-1.000000238418579
			],
			"type":"VEC3"
		},
		{
			"bufferView":11,
			"componentType":5126,
			"count":24,
			"type":"VEC3"
		},
		{
			"bufferView":12,
			"componentType":5126,
			"count":24,
			"type":"VEC2"
		},
		{
			"bufferView":13,
			"componentType":5123,
			"count":36,
			"type":"SCALAR"
		},
		{
			"bufferView":14,
			"componentType":5126,
			"count":40,
			"max":[
				0.9999989867210388,
				1,
				1.000000238418579
			],
			"min":[
				-1.0000008344650269,
				-1,
				-1.000000238418579
			],
			"type":"VEC3"
		},
		{
			"bufferView":15,
			"componentType":5126,
			"count":40,
			"type":"VEC3"
		},
		{
			"bufferView":16,
			"componentType":5126,
			"count":40,
			"type":"VEC2"
		},
		{
			"bufferView":17,
			"componentType":5123,
			"count":60,
			"type":"SCALAR"
		},
		{
			"bufferView":18,
			"componentType":5126,
			"count":1396,
			"max":[
				0.9078161716461182,
				2.948269844055176,
				0.8813936710357666
			],
			"min":[
				-0.8992108702659607,
				0.013862949796020985,
				-0.904586136341095
			],
			"type":"VEC3"
		},
		{
			"bufferView":19,
			"componentType":5126,
			"count":1396,
			"type":"VEC3"
		},
		{
			"bufferView":20,
			"componentType":5126,
			"count":1396,
			"type":"VEC2"
		},
		{
			"bufferView":21,
			"componentType":5123,
			"count":4704,
			"type":"SCALAR"
		},
		{
			"bufferView":22,
			"componentType":5126,
			"count":91,
			"max":[
				0.8451377749443054,
				2.9083189964294434,
				0.8637493848800659
			],
			"min":[
				-0.8451376557350159,
				0.013862949796020985,
				-0.8265255689620972
			],
			"type":"VEC3"
		},
		{
			"bufferView":23,
			"componentType":5126,
			"count":91,
			"type":"VEC3"
		},
		{
			"bufferView":24,
			"componentType":5126,
			"count":91,
			"type":"VEC2"
		},
		{
			"bufferView":25,
			"componentType":5123,
			"count":384,
			"type":"SCALAR"
		},
		{
			"bufferView":26,
			"componentType":5126,
			"count":691,
			"max":[
				0.858697235584259,
				1.841780185699463,
				0.8813936114311218
			],
			"min":[
				-0.8689441680908203,
				0.013862949796020985,
				-0.8502590656280518
			],
			"type":"VEC3"
		},
		{
			"bufferView":27,
			"componentType":5126,
			"count":691,
			"type":"VEC3"
		},
		{
			"bufferView":28,
			"componentType":5126,
			"count":691,
			"type":"VEC2"
		},
		{
			"bufferView":29,
			"componentType":5123,
			"count":2352,
			"type":"SCALAR"
		},
		{
			"bufferView":30,
			"componentType":5126,
			"count":96,
			"max":[
				1.000000238418579,
				0.9999999403953552,
				1
			],
			"min":[
				-1.000000238418579,
				-0.9999999403953552,
				-1
			],
			"type":"VEC3"
		},
		{
			"bufferView":31,
			"componentType":5126,
			"count":96,
			"type":"VEC3"
		},
		{
			"bufferView":32,
			"componentType":5126,
			"count":96,
			"type":"VEC2"
		},
		{
			"bufferView":33,
			"componentType":5123,
			"count":132,
			"type":"SCALAR"
		},
		{
			"bufferView":34,
			"componentType":5126,
			"count":96,
			"max":[
				1.000000238418579,
				0.9999999403953552,
				1
			],
			"min":[
				-1.000000238418579,
				-0.9999999403953552,
				-1
			],
			"type":"VEC3"
		},
		{
			"bufferView":35,
			"componentType":5126,
			"count":96,
			"type":"VEC3"
		},
		{
			"bufferView":36,
			"componentType":5126,
			"count":96,
			"type":"VEC2"
		},
		{
			"bufferView":37,
			"componentType":5126,
			"count":96,
			"max":[
				1.000000238418579,
				0.9999999403953552,
				1
			],
			"min":[
				-1.000000238418579,
				-0.9999999403953552,
				-1
			],
			"type":"VEC3"
		},
		{
			"bufferView":38,
			"componentType":5126,
			"count":96,
			"type":"VEC3"
		},
		{
			"bufferView":39,
			"componentType":5126,
			"count":96,
			"type":"VEC2"
		},
		{
			"bufferView":40,
			"componentType":5126,
			"count":96,
			"max":[
				1.000000238418579,
				0.9999999403953552,
				1
			],
			"min":[
				-1.000000238418579,
				-0.9999999403953552,
				-1
			],
			"type":"VEC3"
		},
		{
			"bufferView":41,
			"componentType":5126,
			"count":96,
			"type":"VEC3"
		},
		{
			"bufferView":42,
			"componentType":5126,
			"count":96,
			"type":"VEC2"
		},
		{
			"bufferView":43,
			"componentType":5126,
			"count":96,
			"max":[
				1.000000238418579,
				0.9999999403953552,
				1
			],
			"min":[
				-1.000000238418579,
				-0.9999999403953552,
				-1
			],
			"type":"VEC3"
		},
		{
			"bufferView":44,
			"componentType":5126,
			"count":96,
			"type":"VEC3"
		},
		{
			"bufferView":45,
			"componentType":5126,
			"count":96,
			"type":"VEC2"
		},
		{
			"bufferView":46,
			"componentType":5126,
			"count":44,
			"max":[
				0.40684908628463745,
				0.6399999260902405,
				0.13122747838497162
			],
			"min":[
				-0.40684908628463745,
				-0.6399999260902405,
				-0.03906095027923584
			],
			"type":"VEC3"
		},
		{
			"bufferView":47,
			"componentType":5126,
			"count":44,
			"type":"VEC3"
		},
		{
			"bufferView":48,
			"componentType":5126,
			"count":44,
			"type":"VEC2"
		},
		{
			"bufferView":49,
			"componentType":5123,
			"count":78,
			"type":"SCALAR"
		},
		{
			"bufferView":50,
			"componentType":5126,
			"count":82,
			"max":[
				0.8282257318496704,
				1.841780185699463,
				0.8468375205993652
			],
			"min":[
				-0.8282254338264465,
				0.013862949796020985,
				-0.8096137642860413
			],
			"type":"VEC3"
		},
		{
			"bufferView":51,
			"componentType":5126,
			"count":82,
			"type":"VEC3"
		},
		{
			"bufferView":52,
			"componentType":5126,
			"count":82,
			"type":"VEC2"
		},
		{
			"bufferView":53,
			"componentType":5123,
			"count":336,
			"type":"SCALAR"
		},
		{
			"bufferView":54,
			"componentType":5126,
			"count":352,
			"max":[
				2.022491455078125,
				5.181096076965332,
				1.8538554906845093
			],
			"min":[
				-1.9775077104568481,
				0.023961547762155533,
				-2.146145820617676
			],
			"type":"VEC3"
		},
		{
			"bufferView":55,
			"componentType":5126,
			"count":352,
			"type":"VEC3"
		},
		{
			"bufferView":56,
			"componentType":5126,
			"count":352,
			"type":"VEC2"
		},
		{
			"bufferView":57,
			"componentType":5123,
			"count":708,
			"type":"SCALAR"
		},
		{
			"bufferView":58,
			"componentType":5126,
			"count":64,
			"max":[
				0.8055406808853149,
				0.3601458966732025,
				0.0993269681930542
			],
			"min":[
				-0.7944595813751221,
				-0.23985379934310913,
				-0.10067319869995117
			],
			"type":"VEC3"
		},
		{
			"bufferView":59,
			"componentType":5126,
			"count":64,
			"type":"VEC3"
		},
		{
			"bufferView":60,
			"componentType":5126,
			"count":64,
			"type":"VEC2"
		},
		{
			"bufferView":61,
			"componentType":5123,
			"count":96,
			"type":"SCALAR"
		},
		{
			"bufferView":62,
			"componentType":5126,
			"count":96,
			"max":[
				0.8083643317222595,
				0.9999996423721313,
				0.09898421168327332
			],
			"min":[
				-0.7916359305381775,
				-1.0000001192092896,
				-0.10101605951786041
			],
			"type":"VEC3"
		},
		{
			"bufferView":63,
			"componentType":5126,
			"count":96,
			"type":"VEC3"
		},
		{
			"bufferView":64,
			"componentType":5126,
			"count":96,
			"type":"VEC2"
		},
		{
			"bufferView":65,
			"componentType":5123,
			"count":144,
			"type":"SCALAR"
		},
		{
			"bufferView":66,
			"componentType":5126,
			"count":40,
			"max":[
				0.9999989867210388,
				1,
				1.000000238418579
			],
			"min":[
				-1.0000008344650269,
				-1,
				-1.000000238418579
			],
			"type":"VEC3"
		},
		{
			"bufferView":67,
			"componentType":5126,
			"count":40,
			"type":"VEC3"
		},
		{
			"bufferView":68,
			"componentType":5126,
			"count":40,
			"type":"VEC2"
		},
		{
			"bufferView":69,
			"componentType":5126,
			"count":200,
			"max":[
				0.4534543454647064,
				0.9545770883560181,
				0.4399702548980713
			],
			"min":[
				-0.3712272047996521,
				-0.23719939589500427,
				-0.44950494170188904
			],
			"type":"VEC3"
		},
		{
			"bufferView":70,
			"componentType":5126,
			"count":200,
			"type":"VEC3"
		},
		{
			"bufferView":71,
			"componentType":5126,
			"count":200,
			"type":"VEC2"
		},
		{
			"bufferView":72,
			"componentType":5126,
			"count":256,
			"max":[
				3.0565390586853027,
				-0.4512007236480713,
				-4.911928176879883
			],
			"min":[
				1.9190483093261719,
				-3.0112011432647705,
				-5.074071884155273
			],
			"type":"VEC3"
		},
		{
			"bufferView":73,
			"componentType":5126,
			"count":256,
			"type":"VEC3"
		},
		{
			"bufferView":74,
			"componentType":5126,
			"count":256,
			"type":"VEC2"
		},
		{
			"bufferView":75,
			"componentType":5121,
			"count":256,
			"type":"VEC4"
		},
		{
			"bufferView":76,
			"componentType":5126,
			"count":256,
			"type":"VEC4"
		},
		{
			"bufferView":77,
			"componentType":5123,
			"count":672,
			"type":"SCALAR"
		},
		{
			"bufferView":78,
			"componentType":5126,
			"count":6,
			"type":"MAT4"
		},
		{
			"bufferView":79,
			"componentType":5126,
			"count":684,
			"max":[
				0.8435874581336975,
				2.16235613822937,
				0.2826097011566162
			],
			"min":[
				-0.7737687230110168,
				-1.9685271978378296,
				-0.22741182148456573
			],
			"type":"VEC3"
		},
		{
			"bufferView":80,
			"componentType":5126,
			"count":684,
			"type":"VEC3"
		},
		{
			"bufferView":81,
			"componentType":5126,
			"count":684,
			"type":"VEC2"
		},
		{
			"bufferView":82,
			"componentType":5123,
			"count":1044,
			"type":"SCALAR"
		},
		{
			"bufferView":83,
			"componentType":5126,
			"count":684,
			"max":[
				0.773768961429596,
				2.162356376647949,
				0.28214430809020996
			],
			"min":[
				-0.843587338924408,
				-1.96852707862854,
				-0.22157056629657745
			],
			"type":"VEC3"
		},
		{
			"bufferView":84,
			"componentType":5126,
			"count":684,
			"type":"VEC3"
		},
		{
			"bufferView":85,
			"componentType":5126,
			"count":684,
			"type":"VEC2"
		},
		{
			"bufferView":86,
			"componentType":5123,
			"count":1044,
			"type":"SCALAR"
		},
		{
			"bufferView":87,
			"componentType":5126,
			"count":528,
			"max":[
				0.704332709312439,
				0.701625406742096,
				0.698625385761261
			],
			"min":[
				-0.6956671476364136,
				-0.6983746290206909,
				-0.7013747096061707
			],
			"type":"VEC3"
		},
		{
			"bufferView":88,
			"componentType":5126,
			"count":528,
			"type":"VEC3"
		},
		{
			"bufferView":89,
			"componentType":5126,
			"count":528,
			"type":"VEC2"
		},
		{
			"bufferView":90,
			"componentType":5123,
			"count":936,
			"type":"SCALAR"
		},
		{
			"bufferView":91,
			"componentType":5126,
			"count":224,
			"max":[
				0.4900035858154297,
				0.5327017903327942,
				0.12000010162591934
			],
			"min":[
				-0.4900035858154297,
				-0.5327017903327942,
				-0.12000010162591934
			],
			"type":"VEC3"
		},
		{
			"bufferView":92,
			"componentType":5126,
			"count":224,
			"type":"VEC3"
		},
		{
			"bufferView":93,
			"componentType":5126,
			"count":224,
			"type":"VEC2"
		},
		{
			"bufferView":94,
			"componentType":5123,
			"count":468,
			"type":"SCALAR"
		},
		{
			"bufferView":95,
			"componentType":5126,
			"count":456,
			"max":[
				0.5902433395385742,
				0.38669389486312866,
				0.901314914226532
			],
			"min":[
				-0.5902450680732727,
				-0.011059007607400417,
				-0.005642561707645655
			],
			"type":"VEC3"
		},
		{
			"bufferView":96,
			"componentType":5126,
			"count":456,
			"type":"VEC3"
		},
		{
			"bufferView":97,
			"componentType":5126,
			"count":456,
			"type":"VEC2"
		},
		{
			"bufferView":98,
			"componentType":5121,
			"count":456,
			"normalized":true,
			"type":"VEC4"
		},
		{
			"bufferView":99,
			"componentType":5123,
			"count":456,
			"normalized":true,
			"type":"VEC4"
		},
		{
			"bufferView":100,
			"componentType":5123,
			"count":1044,
			"type":"SCALAR"
		},
		{
			"bufferView":101,
			"componentType":5126,
			"count":304,
			"max":[
				0.5908042192459106,
				0.28284767270088196,
				0.4835498332977295
			],
			"min":[
				-0.5908042192459106,
				-0.18802401423454285,
				-0.45949092507362366
			],
			"type":"VEC3"
		},
		{
			"bufferView":102,
			"componentType":5126,
			"count":304,
			"type":"VEC3"
		},
		{
			"bufferView":103,
			"componentType":5126,
			"count":304,
			"type":"VEC2"
		},
		{
			"bufferView":104,
			"componentType":5123,
			"count":642,
			"type":"SCALAR"
		},
		{
			"bufferView":105,
			"componentType":5126,
			"count":476,
			"max":[
				2.9640848636627197,
				6.9658308029174805,
				2.816314458847046
			],
			"min":[
				-2.964064121246338,
				-0.00972452387213707,
				-2.7836856842041016
			],
			"type":"VEC3"
		},
		{
			"bufferView":106,
			"componentType":5126,
			"count":476,
			"type":"VEC3"
		},
		{
			"bufferView":107,
			"componentType":5126,
			"count":476,
			"type":"VEC2"
		},
		{
			"bufferView":108,
			"componentType":5123,
			"count":948,
			"type":"SCALAR"
		},
		{
			"bufferView":109,
			"componentType":5126,
			"count":316,
			"max":[
				0.9999833703041077,
				0.6431515216827393,
				1.0000001192092896
			],
			"min":[
				-1.0000169277191162,
				-0.1665993481874466,
				-1.0000001192092896
			],
			"type":"VEC3"
		},
		{
			"bufferView":110,
			"componentType":5126,
			"count":316,
			"type":"VEC3"
		},
		{
			"bufferView":111,
			"componentType":5126,
			"count":316,
			"type":"VEC2"
		},
		{
			"bufferView":112,
			"componentType":5123,
			"count":516,
			"type":"SCALAR"
		},
		{
			"bufferView":113,
			"componentType":5126,
			"count":132,
			"max":[
				0.848964273929596,
				0.8311482071876526,
				0.848964512348175
			],
			"min":[
				-0.848964273929596,
				-0.9599999189376831,
				-0.8489640355110168
			],
			"type":"VEC3"
		},
		{
			"bufferView":114,
			"componentType":5126,
			"count":132,
			"type":"VEC3"
		},
		{
			"bufferView":115,
			"componentType":5126,
			"count":132,
			"type":"VEC2"
		},
		{
			"bufferView":116,
			"componentType":5123,
			"count":228,
			"type":"SCALAR"
		},
		{
			"bufferView":117,
			"componentType":5126,
			"count":352,
			"max":[
				0.6932874917984009,
				0.8157849311828613,
				0.693287193775177
			],
			"min":[
				-0.6932871341705322,
				-0.7763429880142212,
				-0.693287193775177
			],
			"type":"VEC3"
		},
		{
			"bufferView":118,
			"componentType":5126,
			"count":352,
			"type":"VEC3"
		},
		{
			"bufferView":119,
			"componentType":5126,
			"count":352,
			"type":"VEC2"
		},
		{
			"bufferView":120,
			"componentType":5123,
			"count":672,
			"type":"SCALAR"
		},
		{
			"bufferView":121,
			"componentType":5126,
			"count":328,
			"max":[
				-2.129472494125366,
				0.08332838118076324,
				-4.904464244842529
			],
			"min":[
				-3.87489914894104,
				-1.8182913064956665,
				-5.146180152893066
			],
			"type":"VEC3"
		},
		{
			"bufferView":122,
			"componentType":5126,
			"count":328,
			"type":"VEC3"
		},
		{
			"bufferView":123,
			"componentType":5126,
			"count":328,
			"type":"VEC2"
		},
		{
			"bufferView":124,
			"componentType":5121,
			"count":328,
			"type":"VEC4"
		},
		{
			"bufferView":125,
			"componentType":5126,
			"count":328,
			"type":"VEC4"
		},
		{
			"bufferView":126,
			"componentType":5123,
			"count":768,
			"type":"SCALAR"
		},
		{
			"bufferView":127,
			"componentType":5126,
			"count":5,
			"type":"MAT4"
		},
		{
			"bufferView":128,
			"componentType":5126,
			"count":192,
			"max":[
				0.09492576122283936,
				0.41849079728126526,
				0.4170721173286438
			],
			"min":[
				-0.1716442108154297,
				-0.41754990816116333,
				-0.4189683794975281
			],
			"type":"VEC3"
		},
		{
			"bufferView":129,
			"componentType":5126,
			"count":192,
			"type":"VEC3"
		},
		{
			"bufferView":130,
			"componentType":5126,
			"count":192,
			"type":"VEC2"
		},
		{
			"bufferView":131,
			"componentType":5123,
			"count":384,
			"type":"SCALAR"
		},
		{
			"bufferView":132,
			"componentType":5126,
			"count":291,
			"max":[
				0.8284513354301453,
				1.2691535949707031,
				0.8710853457450867
			],
			"min":[
				-0.8284513354301453,
				-1.0545192956924438,
				-0.8710851073265076
			],
			"type":"VEC3"
		},
		{
			"bufferView":133,
			"componentType":5126,
			"count":291,
			"type":"VEC3"
		},
		{
			"bufferView":134,
			"componentType":5126,
			"count":291,
			"type":"VEC2"
		},
		{
			"bufferView":135,
			"componentType":5123,
			"count":720,
			"type":"SCALAR"
		},
		{
			"bufferView":136,
			"componentType":5126,
			"count":409,
			"max":[
				0.8830434679985046,
				1.9455318450927734,
				0.9284868240356445
			],
			"min":[
				-0.8830434679985046,
				-1.0545192956924438,
				-0.9284866452217102
			],
			"type":"VEC3"
		},
		{
			"bufferView":137,
			"componentType":5126,
			"count":409,
			"type":"VEC3"
		},
		{
			"bufferView":138,
			"componentType":5126,
			"count":409,
			"type":"VEC2"
		},
		{
			"bufferView":139,
			"componentType":5123,
			"count":960,
			"type":"SCALAR"
		},
		{
			"bufferView":140,
			"componentType":5126,
			"count":163,
			"max":[
				1,
				1.456298589706421,
				1.2000000476837158
			],
			"min":[
				-1,
				-0.35537686944007874,
				-1.3000000715255737
			],
			"type":"VEC3"
		},
		{
			"bufferView":141,
			"componentType":5126,
			"count":163,
			"type":"VEC3"
		},
		{
			"bufferView":142,
			"componentType":5126,
			"count":163,
			"type":"VEC2"
		},
		{
			"bufferView":143,
			"componentType":5123,
			"count":348,
			"type":"SCALAR"
		},
		{
			"bufferView":144,
			"componentType":5126,
			"count":65,
			"max":[
				0.4770796597003937,
				0.4770797789096832,
				0.4770795404911041
			],
			"min":[
				-0.4770796000957489,
				-0.4770797789096832,
				-0.4770797789096832
			],
			"type":"VEC3"
		},
		{
			"bufferView":145,
			"componentType":5126,
			"count":65,
			"type":"VEC3"
		},
		{
			"bufferView":146,
			"componentType":5126,
			"count":65,
			"type":"VEC2"
		},
		{
			"bufferView":147,
			"componentType":5123,
			"count":336,
			"type":"SCALAR"
		},
		{
			"bufferView":148,
			"componentType":5126,
			"count":362,
			"max":[
				0.9640510082244873,
				0.3016027808189392,
				1.8088393211364746
			],
			"min":[
				-0.9652672410011292,
				-0.7497843503952026,
				-0.47399818897247314
			],
			"type":"VEC3"
		},
		{
			"bufferView":149,
			"componentType":5126,
			"count":362,
			"type":"VEC3"
		},
		{
			"bufferView":150,
			"componentType":5126,
			"count":362,
			"type":"VEC2"
		},
		{
			"bufferView":151,
			"componentType":5123,
			"count":696,
			"type":"SCALAR"
		},
		{
			"bufferView":152,
			"componentType":5126,
			"count":2,
			"max":[
				1.0416666666666667
			],
			"min":[
				0.041666666666666664
			],
			"type":"SCALAR"
		},
		{
			"bufferView":153,
			"componentType":5126,
			"count":2,
			"type":"VEC3"
		},
		{
			"bufferView":154,
			"componentType":5126,
			"count":25,
			"max":[
				1.0416666666666667
			],
			"min":[
				0.041666666666666664
			],
			"type":"SCALAR"
		},
		{
			"bufferView":155,
			"componentType":5126,
			"count":25,
			"type":"VEC4"
		},
		{
			"bufferView":156,
			"componentType":5126,
			"count":2,
			"type":"VEC3"
		},
		{
			"bufferView":157,
			"componentType":5126,
			"count":2,
			"type":"VEC3"
		},
		{
			"bufferView":158,
			"componentType":5126,
			"count":25,
			"type":"VEC4"
		},
		{
			"bufferView":159,
			"componentType":5126,
			"count":2,
			"type":"VEC3"
		},
		{
			"bufferView":160,
			"componentType":5126,
			"count":2,
			"type":"VEC3"
		},
		{
			"bufferView":161,
			"componentType":5126,
			"count":25,
			"type":"VEC4"
		},
		{
			"bufferView":162,
			"componentType":5126,
			"count":2,
			"type":"VEC3"
		},
		{
			"bufferView":163,
			"componentType":5126,
			"count":2,
			"type":"VEC3"
		},
		{
			"bufferView":164,
			"componentType":5126,
			"count":2,
			"type":"VEC4"
		},
		{
			"bufferView":165,
			"componentType":5126,
			"count":2,
			"type":"VEC3"
		},
		{
			"bufferView":166,
			"componentType":5126,
			"count":2,
			"type":"VEC3"
		},
		{
			"bufferView":167,
			"componentType":5126,
			"count":2,
			"type":"VEC4"
		},
		{
			"bufferView":168,
			"componentType":5126,
			"count":2,
			"type":"VEC3"
		},
		{
			"bufferView":169,
			"componentType":5126,
			"count":2,
			"type":"VEC3"
		},
		{
			"bufferView":170,
			"componentType":5126,
			"count":25,
			"type":"VEC4"
		},
		{
			"bufferView":171,
			"componentType":5126,
			"count":2,
			"type":"VEC3"
		},
		{
			"bufferView":172,
			"componentType":5126,
			"count":2,
			"type":"VEC3"
		},
		{
			"bufferView":173,
			"componentType":5126,
			"count":25,
			"type":"VEC4"
		},
		{
			"bufferView":174,
			"componentType":5126,
			"count":2,
			"type":"VEC3"
		},
		{
			"bufferView":175,
			"componentType":5126,
			"count":25,
			"type":"VEC4"
		},
		{
			"bufferView":176,
			"componentType":5126,
			"count":2,
			"type":"VEC3"
		},
		{
			"bufferView":177,
			"componentType":5126,
			"count":2,
			"type":"VEC4"
		}
	],
	"bufferViews":[
		{
			"buffer":0,
			"byteLength":3984,
			"byteOffset":0,
			"target":34962
		},
		{
			"buffer":0,
			"byteLength":3984,
			"byteOffset":3984,
			"target":34962
		},
		{
			"buffer":0,
			"byteLength":2656,
			"byteOffset":7968,
			"target":34962
		},
		{
			"buffer":0,
			"byteLength":1128,
			"byteOffset":10624,
			"target":34963
		},
		{
			"buffer":0,
			"byteLength":2400,
			"byteOffset":11752,
			"target":34962
		},
		{
			"buffer":0,
			"byteLength":2400,
			"byteOffset":14152,
			"target":34962
		},
		{
			"buffer":0,
			"byteLength":1600,
			"byteOffset":16552,
			"target":34962
		},
		{
			"buffer":0,
			"byteLength":800,
			"byteOffset":18152,
			"target":34962
		},
		{
			"buffer":0,
			"byteLength":1600,
			"byteOffset":18952,
			"target":34962
		},
		{
			"buffer":0,
			"byteLength":900,
			"byteOffset":20552,
			"target":34963
		},
		{
			"buffer":0,
			"byteLength":288,
			"byteOffset":21452,
			"target":34962
		},
		{
			"buffer":0,
			"byteLength":288,
			"byteOffset":21740,
			"target":34962
		},
		{
			"buffer":0,
			"byteLength":192,
			"byteOffset":22028,
			"target":34962
		},
		{
			"buffer":0,
			"byteLength":72,
			"byteOffset":22220,
			"target":34963
		},
		{
			"buffer":0,
			"byteLength":480,
			"byteOffset":22292,
			"target":34962
		},
		{
			"buffer":0,
			"byteLength":480,
			"byteOffset":22772,
			"target":34962
		},
		{
			"buffer":0,
			"byteLength":320,
			"byteOffset":23252,
			"target":34962
		},
		{
			"buffer":0,
			"byteLength":120,
			"byteOffset":23572,
			"target":34963
		},
		{
			"buffer":0,
			"byteLength":16752,
			"byteOffset":23692,
			"target":34962
		},
		{
			"buffer":0,
			"byteLength":16752,
			"byteOffset":40444,
			"target":34962
		},
		{
			"buffer":0,
			"byteLength":11168,
			"byteOffset":57196,
			"target":34962
		},
		{
			"buffer":0,
			"byteLength":9408,
			"byteOffset":68364,
			"target":34963
		},
		{
			"buffer":0,
			"byteLength":1092,
			"byteOffset":77772,
			"target":34962
		},
		{
			"buffer":0,
			"byteLength":1092,
			"byteOffset":78864,
			"target":34962
		},
		{
			"buffer":0,
			"byteLength":728,
			"byteOffset":79956,
			"target":34962
		},
		{
			"buffer":0,
			"byteLength":768,
			"byteOffset":80684,
			"target":34963
		},
		{
			"buffer":0,
			"byteLength":8292,
			"byteOffset":81452,
			"target":34962
		},
		{
			"buffer":0,
			"byteLength":8292,
			"byteOffset":89744,
			"target":34962
		},
		{
			"buffer":0,
			"byteLength":5528,
			"byteOffset":98036,
			"target":34962
		},
		{
			"buffer":0,
			"byteLength":4704,
			"byteOffset":103564,
			"target":34963
		},
		{
			"buffer":0,
			"byteLength":1152,
			"byteOffset":108268,
			"target":34962
		},
		{
			"buffer":0,
			"byteLength":1152,
			"byteOffset":109420,
			"target":34962
		},
		{
			"buffer":0,
			"byteLength":768,
			"byteOffset":110572,
			"target":34962
		},
		{
			"buffer":0,
			"byteLength":264,
			"byteOffset":111340,
			"target":34963
		},
		{
			"buffer":0,
			"byteLength":1152,
			"byteOffset":111604,
			"target":34962
		},
		{
			"buffer":0,
			"byteLength":1152,
			"byteOffset":112756,
			"target":34962
		},
		{
			"buffer":0,
			"byteLength":768,
			"byteOffset":113908,
			"target":34962
		},
		{
			"buffer":0,
			"byteLength":1152,
			"byteOffset":114676,
			"target":34962
		},
		{
			"buffer":0,
			"byteLength":1152,
			"byteOffset":115828,
			"target":34962
		},
		{
			"buffer":0,
			"byteLength":768,
			"byteOffset":116980,
			"target":34962
		},
		{
			"buffer":0,
			"byteLength":1152,
			"byteOffset":117748,
			"target":34962
		},
		{
			"buffer":0,
			"byteLength":1152,
			"byteOffset":118900,
			"target":34962
		},
		{
			"buffer":0,
			"byteLength":768,
			"byteOffset":120052,
			"target":34962
		},
		{
			"buffer":0,
			"byteLength":1152,
			"byteOffset":120820,
			"target":34962
		},
		{
			"buffer":0,
			"byteLength":1152,
			"byteOffset":121972,
			"target":34962
		},
		{
			"buffer":0,
			"byteLength":768,
			"byteOffset":123124,
			"target":34962
		},
		{
			"buffer":0,
			"byteLength":528,
			"byteOffset":123892,
			"target":34962
		},
		{
			"buffer":0,
			"byteLength":528,
			"byteOffset":124420,
			"target":34962
		},
		{
			"buffer":0,
			"byteLength":352,
			"byteOffset":124948,
			"target":34962
		},
		{
			"buffer":0,
			"byteLength":156,
			"byteOffset":125300,
			"target":34963
		},
		{
			"buffer":0,
			"byteLength":984,
			"byteOffset":125456,
			"target":34962
		},
		{
			"buffer":0,
			"byteLength":984,
			"byteOffset":126440,
			"target":34962
		},
		{
			"buffer":0,
			"byteLength":656,
			"byteOffset":127424,
			"target":34962
		},
		{
			"buffer":0,
			"byteLength":672,
			"byteOffset":128080,
			"target":34963
		},
		{
			"buffer":0,
			"byteLength":4224,
			"byteOffset":128752,
			"target":34962
		},
		{
			"buffer":0,
			"byteLength":4224,
			"byteOffset":132976,
			"target":34962
		},
		{
			"buffer":0,
			"byteLength":2816,
			"byteOffset":137200,
			"target":34962
		},
		{
			"buffer":0,
			"byteLength":1416,
			"byteOffset":140016,
			"target":34963
		},
		{
			"buffer":0,
			"byteLength":768,
			"byteOffset":141432,
			"target":34962
		},
		{
			"buffer":0,
			"byteLength":768,
			"byteOffset":142200,
			"target":34962
		},
		{
			"buffer":0,
			"byteLength":512,
			"byteOffset":142968,
			"target":34962
		},
		{
			"buffer":0,
			"byteLength":192,
			"byteOffset":143480,
			"target":34963
		},
		{
			"buffer":0,
			"byteLength":1152,
			"byteOffset":143672,
			"target":34962
		},
		{
			"buffer":0,
			"byteLength":1152,
			"byteOffset":144824,
			"target":34962
		},
		{
			"buffer":0,
			"byteLength":768,
			"byteOffset":145976,
			"target":34962
		},
		{
			"buffer":0,
			"byteLength":288,
			"byteOffset":146744,
			"target":34963
		},
		{
			"buffer":0,
			"byteLength":480,
			"byteOffset":147032,
			"target":34962
		},
		{
			"buffer":0,
			"byteLength":480,
			"byteOffset":147512,
			"target":34962
		},
		{
			"buffer":0,
			"byteLength":320,
			"byteOffset":147992,
			"target":34962
		},
		{
			"buffer":0,
			"byteLength":2400,
			"byteOffset":148312,
			"target":34962
		},
		{
			"buffer":0,
			"byteLength":2400,
			"byteOffset":150712,
			"target":34962
		},
		{
			"buffer":0,
			"byteLength":1600,
			"byteOffset":153112,
			"target":34962
		},
		{
			"buffer":0,
			"byteLength":3072,
			"byteOffset":154712,
			"target":34962
		},
		{
			"buffer":0,
			"byteLength":3072,
			"byteOffset":157784,
			"target":34962
		},
		{
			"buffer":0,
			"byteLength":2048,
			"byteOffset":160856,
			"target":34962
		},
		{
			"buffer":0,
			"byteLength":1024,
			"byteOffset":162904,
			"target":34962
		},
		{
			"buffer":0,
			"byteLength":4096,
			"byteOffset":163928,
			"target":34962
		},
		{
			"buffer":0,
			"byteLength":1344,
			"byteOffset":168024,
			"target":34963
		},
		{
			"buffer":0,
			"byteLength":384,
			"byteOffset":169368
		},
		{
			"buffer":0,
			"byteLength":8208,
			"byteOffset":169752,
			"target":34962
		},
		{
			"buffer":0,
			"byteLength":8208,
			"byteOffset":177960,
			"target":34962
		},
		{
			"buffer":0,
			"byteLength":5472,
			"byteOffset":186168,
			"target":34962
		},
		{
			"buffer":0,
			"byteLength":2088,
			"byteOffset":191640,
			"target":34963
		},
		{
			"buffer":0,
			"byteLength":8208,
			"byteOffset":193728,
			"target":34962
		},
		{
			"buffer":0,
			"byteLength":8208,
			"byteOffset":201936,
			"target":34962
		},
		{
			"buffer":0,
			"byteLength":5472,
			"byteOffset":210144,
			"target":34962
		},
		{
			"buffer":0,
			"byteLength":2088,
			"byteOffset":215616,
			"target":34963
		},
		{
			"buffer":0,
			"byteLength":6336,
			"byteOffset":217704,
			"target":34962
		},
		{
			"buffer":0,
			"byteLength":6336,
			"byteOffset":224040,
			"target":34962
		},
		{
			"buffer":0,
			"byteLength":4224,
			"byteOffset":230376,
			"target":34962
		},
		{
			"buffer":0,
			"byteLength":1872,
			"byteOffset":234600,
			"target":34963
		},
		{
			"buffer":0,
			"byteLength":2688,
			"byteOffset":236472,
			"target":34962
		},
		{
			"buffer":0,
			"byteLength":2688,
			"byteOffset":239160,
			"target":34962
		},
		{
			"buffer":0,
			"byteLength":1792,
			"byteOffset":241848,
			"target":34962
		},
		{
			"buffer":0,
			"byteLength":936,
			"byteOffset":243640,
			"target":34963
		},
		{
			"buffer":0,
			"byteLength":5472,
			"byteOffset":244576,
			"target":34962
		},
		{
			"buffer":0,
			"byteLength":5472,
			"byteOffset":250048,
			"target":34962
		},
		{
			"buffer":0,
			"byteLength":3648,
			"byteOffset":255520,
			"target":34962
		},
		{
			"buffer":0,
			"byteLength":1824,
			"byteOffset":259168,
			"target":34962
		},
		{
			"buffer":0,
			"byteLength":3648,
			"byteOffset":260992,
			"target":34962
		},
		{
			"buffer":0,
			"byteLength":2088,
			"byteOffset":264640,
			"target":34963
		},
		{
			"buffer":0,
			"byteLength":3648,
			"byteOffset":266728,
			"target":34962
		},
		{
			"buffer":0,
			"byteLength":3648,
			"byteOffset":270376,
			"target":34962
		},
		{
			"buffer":0,
			"byteLength":2432,
			"byteOffset":274024,
			"target":34962
		},
		{
			"buffer":0,
			"byteLength":1284,
			"byteOffset":276456,
			"target":34963
		},
		{
			"buffer":0,
			"byteLength":5712,
			"byteOffset":277740,
			"target":34962
		},
		{
			"buffer":0,
			"byteLength":5712,
			"byteOffset":283452,
			"target":34962
		},
		{
			"buffer":0,
			"byteLength":3808,
			"byteOffset":289164,
			"target":34962
		},
		{
			"buffer":0,
			"byteLength":1896,
			"byteOffset":292972,
			"target":34963
		},
		{
			"buffer":0,
			"byteLength":3792,
			"byteOffset":294868,
			"target":34962
		},
		{
			"buffer":0,
			"byteLength":3792,
			"byteOffset":298660,
			"target":34962
		},
		{
			"buffer":0,
			"byteLength":2528,
			"byteOffset":302452,
			"target":34962
		},
		{
			"buffer":0,
			"byteLength":1032,
			"byteOffset":304980,
			"target":34963
		},
		{
			"buffer":0,
			"byteLength":1584,
			"byteOffset":306012,
			"target":34962
		},
		{
			"buffer":0,
			"byteLength":1584,
			"byteOffset":307596,
			"target":34962
		},
		{
			"buffer":0,
			"byteLength":1056,
			"byteOffset":309180,
			"target":34962
		},
		{
			"buffer":0,
			"byteLength":456,
			"byteOffset":310236,
			"target":34963
		},
		{
			"buffer":0,
			"byteLength":4224,
			"byteOffset":310692,
			"target":34962
		},
		{
			"buffer":0,
			"byteLength":4224,
			"byteOffset":314916,
			"target":34962
		},
		{
			"buffer":0,
			"byteLength":2816,
			"byteOffset":319140,
			"target":34962
		},
		{
			"buffer":0,
			"byteLength":1344,
			"byteOffset":321956,
			"target":34963
		},
		{
			"buffer":0,
			"byteLength":3936,
			"byteOffset":323300,
			"target":34962
		},
		{
			"buffer":0,
			"byteLength":3936,
			"byteOffset":327236,
			"target":34962
		},
		{
			"buffer":0,
			"byteLength":2624,
			"byteOffset":331172,
			"target":34962
		},
		{
			"buffer":0,
			"byteLength":1312,
			"byteOffset":333796,
			"target":34962
		},
		{
			"buffer":0,
			"byteLength":5248,
			"byteOffset":335108,
			"target":34962
		},
		{
			"buffer":0,
			"byteLength":1536,
			"byteOffset":340356,
			"target":34963
		},
		{
			"buffer":0,
			"byteLength":320,
			"byteOffset":341892
		},
		{
			"buffer":0,
			"byteLength":2304,
			"byteOffset":342212,
			"target":34962
		},
		{
			"buffer":0,
			"byteLength":2304,
			"byteOffset":344516,
			"target":34962
		},
		{
			"buffer":0,
			"byteLength":1536,
			"byteOffset":346820,
			"target":34962
		},
		{
			"buffer":0,
			"byteLength":768,
			"byteOffset":348356,
			"target":34963
		},
		{
			"buffer":0,
			"byteLength":3492,
			"byteOffset":349124,
			"target":34962
		},
		{
			"buffer":0,
			"byteLength":3492,
			"byteOffset":352616,
			"target":34962
		},
		{
			"buffer":0,
			"byteLength":2328,
			"byteOffset":356108,
			"target":34962
		},
		{
			"buffer":0,
			"byteLength":1440,
			"byteOffset":358436,
			"target":34963
		},
		{
			"buffer":0,
			"byteLength":4908,
			"byteOffset":359876,
			"target":34962
		},
		{
			"buffer":0,
			"byteLength":4908,
			"byteOffset":364784,
			"target":34962
		},
		{
			"buffer":0,
			"byteLength":3272,
			"byteOffset":369692,
			"target":34962
		},
		{
			"buffer":0,
			"byteLength":1920,
			"byteOffset":372964,
			"target":34963
		},
		{
			"buffer":0,
			"byteLength":1956,
			"byteOffset":374884,
			"target":34962
		},
		{
			"buffer":0,
			"byteLength":1956,
			"byteOffset":376840,
			"target":34962
		},
		{
			"buffer":0,
			"byteLength":1304,
			"byteOffset":378796,
			"target":34962
		},
		{
			"buffer":0,
			"byteLength":696,
			"byteOffset":380100,
			"target":34963
		},
		{
			"buffer":0,
			"byteLength":780,
			"byteOffset":380796,
			"target":34962
		},
		{
			"buffer":0,
			"byteLength":780,
			"byteOffset":381576,
			"target":34962
		},
		{
			"buffer":0,
			"byteLength":520,
			"byteOffset":382356,
			"target":34962
		},
		{
			"buffer":0,
			"byteLength":672,
			"byteOffset":382876,
			"target":34963
		},
		{
			"buffer":0,
			"byteLength":4344,
			"byteOffset":383548,
			"target":34962
		},
		{
			"buffer":0,
			"byteLength":4344,
			"byteOffset":387892,
			"target":34962
		},
		{
			"buffer":0,
			"byteLength":2896,
			"byteOffset":392236,
			"target":34962
		},
		{
			"buffer":0,
			"byteLength":1392,
			"byteOffset":395132,
			"target":34963
		},
		{
			"buffer":0,
			"byteLength":8,
			"byteOffset":396524
		},
		{
			"buffer":0,
			"byteLength":24,
			"byteOffset":396532
		},
		{
			"buffer":0,
			"byteLength":100,
			"byteOffset":396556
		},
		{
			"buffer":0,
			"byteLength":400,
			"byteOffset":396656
		},
		{
			"buffer":0,
			"byteLength":24,
			"byteOffset":397056
		},
		{
			"buffer":0,
			"byteLength":24,
			"byteOffset":397080
		},
		{
			"buffer":0,
			"byteLength":400,
			"byteOffset":397104
		},
		{
			"buffer":0,
			"byteLength":24,
			"byteOffset":397504
		},
		{
			"buffer":0,
			"byteLength":24,
			"byteOffset":397528
		},
		{
			"buffer":0,
			"byteLength":400,
			"byteOffset":397552
		},
		{
			"buffer":0,
			"byteLength":24,
			"byteOffset":397952
		},
		{
			"buffer":0,
			"byteLength":24,
			"byteOffset":397976
		},
		{
			"buffer":0,
			"byteLength":32,
			"byteOffset":398000
		},
		{
			"buffer":0,
			"byteLength":24,
			"byteOffset":398032
		},
		{
			"buffer":0,
			"byteLength":24,
			"byteOffset":398056
		},
		{
			"buffer":0,
			"byteLength":32,
			"byteOffset":398080
		},
		{
			"buffer":0,
			"byteLength":24,
			"byteOffset":398112
		},
		{
			"buffer":0,
			"byteLength":24,
			"byteOffset":398136
		},
		{
			"buffer":0,
			"byteLength":400,
			"byteOffset":398160
		},
		{
			"buffer":0,
			"byteLength":24,
			"byteOffset":398560
		},
		{
			"buffer":0,
			"byteLength":24,
			"byteOffset":398584
		},
		{
			"buffer":0,
			"byteLength":400,
			"byteOffset":398608
		},
		{
			"buffer":0,
			"byteLength":24,
			"byteOffset":399008
		},
		{
			"buffer":0,
			"byteLength":400,
			"byteOffset":399032
		},
		{
			"buffer":0,
			"byteLength":24,
			"byteOffset":399432
		},
		{
			"buffer":0,
			"byteLength":32,
			"byteOffset":399456
		}
	],
	"buffers":[
		{
			"byteLength":399488,
			"uri":"Forest%20Arena%20Blend.bin"
		}
	]
}
