{
	"asset":{
		"generator":"Khronos glTF Blender I/O v5.1.19",
		"version":"2.0"
	},
	"extensionsUsed":[
		"KHR_materials_emissive_strength"
	],
	"scene":0,
	"scenes":[
		{
			"name":"Scene",
			"nodes":[
				0,
				41
			]
		}
	],
	"nodes":[
		{
			"name":"empty_dof",
			"scale":[
				0.05697634443640709,
				0.05697634443640709,
				0.05697634443640709
			],
			"translation":[
				-0.21372441947460175,
				0.5446325540542603,
				0.10866113007068634
			]
		},
		{
			"name":"body_top",
			"rotation":[
				0,
				-1.1920928955078125e-07,
				0,
				1
			],
			"translation":[
				-4.656409924308491e-09,
				0.1410083919763565,
				-3.725290298461914e-09
			]
		},
		{
			"name":"leg4.l",
			"rotation":[
				0.0017902791732922196,
				-0.6519294381141663,
				0.7582759857177734,
				0.0015391410561278462
			],
			"scale":[
				1,
				0.9999997615814209,
				1
			],
			"translation":[
				3.3251126296818256e-09,
				0.025695595890283585,
				-1.8684659153223038e-08
			]
		},
		{
			"children":[
				2
			],
			"name":"leg4_ik.l",
			"rotation":[
				0.03138355910778046,
				-0.0023600123822689056,
				-7.408731471514329e-05,
				0.9995046257972717
			],
			"scale":[
				1.0000001192092896,
				1,
				0.9999998807907104
			],
			"translation":[
				5.366309618892728e-09,
				0.03114640712738037,
				6.75883882195194e-09
			]
		},
		{
			"name":"leg3.l",
			"rotation":[
				2.0805516953714687e-07,
				0.6754077076911926,
				-0.7374445796012878,
				1.3150676636541903e-07
			],
			"scale":[
				1,
				1.000000238418579,
				1.0000001192092896
			],
			"translation":[
				5.366309618892728e-09,
				0.03114640712738037,
				6.75883882195194e-09
			]
		},
		{
			"children":[
				3,
				4
			],
			"name":"leg3_ik.l",
			"rotation":[
				0.0640755444765091,
				1.1906873709222054e-07,
				2.4541666476807222e-08,
				0.9979450702667236
			],
			"scale":[
				1,
				0.9999999403953552,
				1
			],
			"translation":[
				8.416787267151449e-09,
				0.02838039956986904,
				5.320814011611219e-09
			]
		},
		{
			"name":"leg2.l",
			"rotation":[
				1.1275592015635993e-07,
				0.7212718725204468,
				-0.6926521062850952,
				5.445451378705002e-08
			],
			"scale":[
				1,
				0.9999997615814209,
				0.9999999403953552
			],
			"translation":[
				8.416787267151449e-09,
				0.02838039956986904,
				5.320814011611219e-09
			]
		},
		{
			"name":"knee_ik.l",
			"rotation":[
				1.1275594147264201e-07,
				0.7212718725204468,
				-0.6926521062850952,
				5.44545173397637e-08
			],
			"scale":[
				1,
				1,
				0.9999999403953552
			],
			"translation":[
				2.1794850368905827e-08,
				0.030654145404696465,
				-0.056142739951610565
			]
		},
		{
			"children":[
				5,
				6,
				7
			],
			"name":"leg2_ik.l",
			"rotation":[
				0.07920821011066437,
				0.005848788656294346,
				-0.015630265697836876,
				0.9967184066772461
			],
			"scale":[
				1,
				1.000000238418579,
				1.0000001192092896
			],
			"translation":[
				3.026798367500305e-09,
				0.00841776467859745,
				-1.2456439435482025e-08
			]
		},
		{
			"name":"leg1.l",
			"rotation":[
				-0.00722256675362587,
				-0.7737686634063721,
				0.6332484483718872,
				0.015044799074530602
			],
			"scale":[
				1,
				1.0000005960464478,
				1.000000238418579
			],
			"translation":[
				3.026798367500305e-09,
				0.00841776467859745,
				-1.2456439435482025e-08
			]
		},
		{
			"children":[
				8,
				9
			],
			"name":"leg1_ik.l",
			"rotation":[
				-0.0993628278374672,
				-0.005531232804059982,
				0.01574542187154293,
				0.9949113130569458
			],
			"translation":[
				-4.887201754399939e-10,
				0.02835714817047119,
				5.922967005744795e-09
			]
		},
		{
			"children":[
				10
			],
			"name":"leg_ymove.l",
			"rotation":[
				1,
				0,
				3.1391647326017846e-07,
				0
			],
			"translation":[
				0.13791199028491974,
				0.06473465263843536,
				-0.05280254781246185
			]
		},
		{
			"name":"leg4.r",
			"rotation":[
				0.0017902780091390014,
				-0.651929497718811,
				0.7582759261131287,
				0.001539140590466559
			],
			"scale":[
				1,
				1.000000238418579,
				1.0000001192092896
			],
			"translation":[
				-1.1634256225079298e-08,
				0.02569560892879963,
				-1.8684659153223038e-08
			]
		},
		{
			"children":[
				12
			],
			"name":"leg4_ik.r",
			"rotation":[
				0.03138355910778046,
				-0.0023600123822689056,
				-7.408731471514329e-05,
				0.9995046257972717
			],
			"scale":[
				1,
				1,
				0.9999998807907104
			],
			"translation":[
				2.0267478362256952e-08,
				0.031146427616477013,
				9.138503287431377e-09
			]
		},
		{
			"name":"leg3.r",
			"rotation":[
				2.080551979588563e-07,
				0.6754077076911926,
				-0.7374445199966431,
				1.3150670952200016e-07
			],
			"scale":[
				0.9999999403953552,
				1.000000238418579,
				1
			],
			"translation":[
				2.0267478362256952e-08,
				0.031146427616477013,
				9.138503287431377e-09
			]
		},
		{
			"children":[
				13,
				14
			],
			"name":"leg3_ik.r",
			"rotation":[
				0.0640755221247673,
				1.1796775822858763e-07,
				2.1929285054511638e-08,
				0.9979450702667236
			],
			"scale":[
				0.9999999403953552,
				0.9999998807907104,
				0.9999999403953552
			],
			"translation":[
				2.2208064720530274e-08,
				0.028380410745739937,
				-6.121133822034608e-09
			]
		},
		{
			"name":"leg2.r",
			"rotation":[
				1.1419628975772866e-07,
				0.7212718725204468,
				-0.6926521062850952,
				5.445451378705002e-08
			],
			"scale":[
				0.9999999403953552,
				0.9999996423721313,
				0.9999999403953552
			],
			"translation":[
				2.2208064720530274e-08,
				0.028380410745739937,
				-6.121133822034608e-09
			]
		},
		{
			"name":"knee_ik.r",
			"rotation":[
				1.1419634660114752e-07,
				0.7212718725204468,
				-0.6926521062850952,
				5.4454524445191055e-08
			],
			"scale":[
				0.9999999403953552,
				0.9999999403953552,
				0.9999999403953552
			],
			"translation":[
				3.5702875322840555e-08,
				0.03065415844321251,
				-0.056142739951610565
			]
		},
		{
			"children":[
				15,
				16,
				17
			],
			"name":"leg2_ik.r",
			"rotation":[
				0.07920821011066437,
				-0.005848549772053957,
				0.01563028246164322,
				0.9967184066772461
			],
			"scale":[
				1,
				1.0000001192092896,
				1
			],
			"translation":[
				-1.7695128917694092e-08,
				0.008417747914791107,
				-4.307366907596588e-09
			]
		},
		{
			"name":"leg1.r",
			"rotation":[
				-0.007222565822303295,
				0.7737686634063721,
				-0.6332484483718872,
				0.015044798143208027
			],
			"scale":[
				1,
				1.0000004768371582,
				1
			],
			"translation":[
				-1.7695128917694092e-08,
				0.008417747914791107,
				-4.307366907596588e-09
			]
		},
		{
			"children":[
				18,
				19
			],
			"name":"leg1_ik.r",
			"rotation":[
				-0.09936284273862839,
				0.005531318951398134,
				-0.015745412558317184,
				0.9949113130569458
			],
			"scale":[
				1,
				0.9999998807907104,
				1
			],
			"translation":[
				3.408270998761509e-09,
				0.02835714817047119,
				7.684523239959162e-09
			]
		},
		{
			"children":[
				20
			],
			"name":"leg_ymove.r",
			"rotation":[
				1,
				0,
				7.549787994776125e-08,
				0
			],
			"translation":[
				-0.13791196048259735,
				0.06473465263843536,
				-0.0528026819229126
			]
		},
		{
			"children":[
				1,
				11,
				21
			],
			"name":"body_bottom",
			"translation":[
				2.8078641634010637e-08,
				0.15908339619636536,
				-0.0491199754178524
			]
		},
		{
			"name":"foot_ik.r",
			"rotation":[
				-6.910736516374527e-08,
				0.9016414284706116,
				-0.4324844181537628,
				6.807203334346923e-08
			],
			"scale":[
				1,
				0.9999996423721313,
				0.9999999403953552
			],
			"translation":[
				9.62002566495812e-09,
				0.06136765703558922,
				0.036762598901987076
			]
		},
		{
			"children":[
				23
			],
			"name":"foot_heel.r",
			"rotation":[
				-1.2472875668092425e-15,
				-4.2146840684154085e-08,
				-1.176178443529352e-08,
				1
			],
			"scale":[
				1,
				0.9999999403953552,
				1
			],
			"translation":[
				1.016751016713613e-09,
				0.05666026473045349,
				7.450580596923828e-09
			]
		},
		{
			"children":[
				24
			],
			"name":"foot_joint.r",
			"rotation":[
				3.1949610956871766e-08,
				-7.515689459669517e-16,
				-1,
				8.881784197001252e-16
			],
			"translation":[
				-4.6273029852272884e-09,
				0.11802791804075241,
				-0.03676259517669678
			]
		},
		{
			"name":"foot_toe.r",
			"rotation":[
				-2.9762395889823545e-13,
				-2.5304318114649504e-05,
				-1.176178532347194e-08,
				1
			],
			"translation":[
				-5.009921810739115e-09,
				0.10425426810979843,
				-0.0358453169465065
			]
		},
		{
			"children":[
				25,
				26
			],
			"name":"foot_ctl.r",
			"rotation":[
				-1.8286233682829334e-07,
				0.7071067690849304,
				0.7071067690849304,
				1.376787679419067e-07
			],
			"translation":[
				-0.13765744864940643,
				0.10162632912397385,
				-0.10459038615226746
			]
		},
		{
			"name":"foot_toe.l",
			"rotation":[
				2.9902363679785993e-13,
				2.5240418835892342e-05,
				-1.1761772000795645e-08,
				1
			],
			"scale":[
				0.9999999403953552,
				0.9999999403953552,
				0.9999998807907104
			],
			"translation":[
				9.891229169056714e-09,
				0.10425415635108948,
				-0.035845331847667694
			]
		},
		{
			"name":"foot_ik.l",
			"rotation":[
				-4.8565809152023576e-08,
				-0.9526936411857605,
				0.303932249546051,
				7.192637241359989e-08
			],
			"scale":[
				1,
				1.0000001192092896,
				1.0000001192092896
			],
			"translation":[
				-6.521170270445964e-09,
				0.06136767193675041,
				1.1603662919412727e-08
			]
		},
		{
			"children":[
				29
			],
			"name":"foot_heel.l",
			"rotation":[
				-1.6564206798381858e-15,
				4.2146837131440407e-08,
				-1.1761770224438806e-08,
				1
			],
			"scale":[
				0.9999999403953552,
				0.9999998211860657,
				0.9999998807907104
			],
			"translation":[
				1.0167537922711745e-09,
				0.05666028708219528,
				6.786238238021269e-15
			]
		},
		{
			"children":[
				30
			],
			"name":"foot_joint.l",
			"rotation":[
				-3.194965358943591e-08,
				-1.4005725781750114e-15,
				1,
				1.3322693236160824e-15
			],
			"scale":[
				0.9999999403953552,
				0.9999999403953552,
				0.9999998807907104
			],
			"translation":[
				1.0273847550479331e-08,
				0.11802780628204346,
				-0.03676261007785797
			]
		},
		{
			"children":[
				28,
				31
			],
			"name":"foot_ctl.l",
			"rotation":[
				-1.8286237946085748e-07,
				0.7071067690849304,
				0.7071067690849304,
				1.3767875373105198e-07
			],
			"scale":[
				1,
				0.9999997019767761,
				0.9999999403953552
			],
			"translation":[
				0.1376575380563736,
				0.10162632912397385,
				-0.10459025204181671
			]
		},
		{
			"children":[
				22,
				27,
				32
			],
			"name":"root",
			"rotation":[
				0,
				2.384185791015625e-07,
				0,
				1
			],
			"translation":[
				0,
				0.012498781085014343,
				0
			]
		},
		{
			"name":"neutral_bone",
			"rotation":[
				-0.7071067690849304,
				0,
				0,
				0.7071067690849304
			]
		},
		{
			"mesh":0,
			"name":"Gum Bot hipoly",
			"skin":0
		},
		{
			"mesh":1,
			"name":"Gum Bot lod01",
			"skin":0
		},
		{
			"mesh":2,
			"name":"Gum Bot lod02",
			"skin":0
		},
		{
			"mesh":3,
			"name":"Gum Bot lod03",
			"skin":0
		},
		{
			"mesh":4,
			"name":"Gum Bot lowpoly",
			"skin":0
		},
		{
			"mesh":5,
			"name":"Gum Bot physics",
			"skin":0
		},
		{
			"children":[
				35,
				36,
				37,
				38,
				39,
				40,
				33,
				34
			],
			"name":"Gum Bot Rig",
			"scale":[
				0.8000345826148987,
				0.8000345826148987,
				0.8000345826148987
			]
		}
	],
	"materials":[
		{
			"doubleSided":true,
			"name":"gum_bot_clean_glass"
		},
		{
			"doubleSided":true,
			"emissiveFactor":[
				1,
				1,
				1
			],
			"extensions":{
				"KHR_materials_emissive_strength":{
					"emissiveStrength":3
				}
			},
			"name":"gum_bot_clean_screen",
			"pbrMetallicRoughness":{
				"baseColorFactor":[
					0,
					0,
					0,
					1
				]
			}
		},
		{
			"doubleSided":true,
			"name":"gum_bot_clean_body"
		}
	],
	"meshes":[
		{
			"name":"Gum Bot highpoly",
			"primitives":[
				{
					"attributes":{
						"POSITION":0,
						"NORMAL":1,
						"TEXCOORD_0":2,
						"TEXCOORD_1":3,
						"TEXCOORD_2":4,
						"TEXCOORD_3":5,
						"COLOR_0":6,
						"COLOR_1":7,
						"COLOR_2":8,
						"COLOR_3":9,
						"COLOR_4":10,
						"COLOR_5":11,
						"JOINTS_0":12,
						"WEIGHTS_0":13
					},
					"indices":14
				},
				{
					"attributes":{
						"POSITION":15,
						"NORMAL":16,
						"TEXCOORD_0":17,
						"TEXCOORD_1":18,
						"TEXCOORD_2":19,
						"TEXCOORD_3":20,
						"COLOR_0":21,
						"COLOR_1":22,
						"COLOR_2":23,
						"COLOR_3":24,
						"COLOR_4":25,
						"COLOR_5":26,
						"JOINTS_0":27,
						"WEIGHTS_0":28
					},
					"indices":29,
					"material":0
				},
				{
					"attributes":{
						"POSITION":30,
						"NORMAL":31,
						"TEXCOORD_0":32,
						"TEXCOORD_1":33,
						"TEXCOORD_2":34,
						"TEXCOORD_3":35,
						"COLOR_0":36,
						"COLOR_1":37,
						"COLOR_2":38,
						"COLOR_3":39,
						"COLOR_4":40,
						"COLOR_5":41,
						"JOINTS_0":42,
						"WEIGHTS_0":43
					},
					"indices":44,
					"material":1
				}
			]
		},
		{
			"name":"Gum Bot lod1",
			"primitives":[
				{
					"attributes":{
						"POSITION":46,
						"NORMAL":47,
						"TEXCOORD_0":48,
						"TEXCOORD_1":49,
						"TEXCOORD_2":50,
						"COLOR_0":51,
						"COLOR_1":52,
						"JOINTS_0":53,
						"WEIGHTS_0":54
					},
					"indices":55,
					"material":2
				},
				{
					"attributes":{
						"POSITION":56,
						"NORMAL":57,
						"TEXCOORD_0":58,
						"TEXCOORD_1":59,
						"TEXCOORD_2":60,
						"COLOR_0":61,
						"COLOR_1":62,
						"JOINTS_0":63,
						"WEIGHTS_0":64
					},
					"indices":65,
					"material":1
				},
				{
					"attributes":{
						"POSITION":66,
						"NORMAL":67,
						"TEXCOORD_0":68,
						"TEXCOORD_1":69,
						"TEXCOORD_2":70,
						"COLOR_0":71,
						"COLOR_1":72,
						"JOINTS_0":73,
						"WEIGHTS_0":74
					},
					"indices":29,
					"material":0
				}
			]
		},
		{
			"name":"Gum Bot lod2",
			"primitives":[
				{
					"attributes":{
						"POSITION":75,
						"NORMAL":76,
						"TEXCOORD_0":77,
						"TEXCOORD_1":78,
						"TEXCOORD_2":79,
						"COLOR_0":80,
						"COLOR_1":81,
						"JOINTS_0":82,
						"WEIGHTS_0":83
					},
					"indices":84,
					"material":2
				},
				{
					"attributes":{
						"POSITION":85,
						"NORMAL":86,
						"TEXCOORD_0":87,
						"TEXCOORD_1":88,
						"TEXCOORD_2":89,
						"COLOR_0":90,
						"COLOR_1":91,
						"JOINTS_0":92,
						"WEIGHTS_0":93
					},
					"indices":65,
					"material":1
				},
				{
					"attributes":{
						"POSITION":94,
						"NORMAL":95,
						"TEXCOORD_0":96,
						"TEXCOORD_1":97,
						"TEXCOORD_2":98,
						"COLOR_0":99,
						"COLOR_1":100,
						"JOINTS_0":101,
						"WEIGHTS_0":102
					},
					"indices":29,
					"material":0
				}
			]
		},
		{
			"name":"Gum Bot lod3",
			"primitives":[
				{
					"attributes":{
						"POSITION":103,
						"NORMAL":104,
						"TEXCOORD_0":105,
						"TEXCOORD_1":106,
						"TEXCOORD_2":107,
						"COLOR_0":108,
						"COLOR_1":109,
						"JOINTS_0":110,
						"WEIGHTS_0":111
					},
					"indices":112,
					"material":2
				},
				{
					"attributes":{
						"POSITION":113,
						"NORMAL":114,
						"TEXCOORD_0":115,
						"TEXCOORD_1":116,
						"TEXCOORD_2":117,
						"COLOR_0":118,
						"COLOR_1":119,
						"JOINTS_0":120,
						"WEIGHTS_0":121
					},
					"indices":122,
					"material":1
				},
				{
					"attributes":{
						"POSITION":123,
						"NORMAL":124,
						"TEXCOORD_0":125,
						"TEXCOORD_1":126,
						"TEXCOORD_2":127,
						"COLOR_0":128,
						"COLOR_1":129,
						"JOINTS_0":130,
						"WEIGHTS_0":131
					},
					"indices":132,
					"material":0
				}
			]
		},
		{
			"name":"Gum Bot lowpoly",
			"primitives":[
				{
					"attributes":{
						"POSITION":133,
						"NORMAL":134,
						"TEXCOORD_0":135,
						"TEXCOORD_1":136,
						"TEXCOORD_2":137,
						"COLOR_0":138,
						"COLOR_1":139,
						"JOINTS_0":140,
						"WEIGHTS_0":141
					},
					"indices":142,
					"material":2
				},
				{
					"attributes":{
						"POSITION":143,
						"NORMAL":144,
						"TEXCOORD_0":145,
						"TEXCOORD_1":146,
						"TEXCOORD_2":147,
						"COLOR_0":148,
						"COLOR_1":149,
						"JOINTS_0":150,
						"WEIGHTS_0":151
					},
					"indices":65,
					"material":1
				},
				{
					"attributes":{
						"POSITION":152,
						"NORMAL":153,
						"TEXCOORD_0":154,
						"TEXCOORD_1":155,
						"TEXCOORD_2":156,
						"COLOR_0":157,
						"COLOR_1":158,
						"JOINTS_0":159,
						"WEIGHTS_0":160
					},
					"indices":29,
					"material":0
				}
			]
		},
		{
			"name":"Gum Bot physics",
			"primitives":[
				{
					"attributes":{
						"POSITION":161,
						"NORMAL":162,
						"JOINTS_0":163,
						"WEIGHTS_0":164
					},
					"indices":165
				}
			]
		}
	],
	"skins":[
		{
			"inverseBindMatrices":45,
			"joints":[
				33,
				22,
				1,
				11,
				10,
				8,
				5,
				3,
				2,
				4,
				6,
				7,
				9,
				21,
				20,
				18,
				15,
				13,
				12,
				14,
				16,
				17,
				19,
				27,
				25,
				24,
				23,
				26,
				32,
				28,
				31,
				30,
				29,
				34
			],
			"name":"Gum Bot Rig"
		}
	],
	"accessors":[
		{
			"bufferView":0,
			"componentType":5126,
			"count":23927,
			"max":[
				0.26029083132743835,
				0.6400997638702393,
				0.27116724848747253
			],
			"min":[
				-0.26029083132743835,
				-6.937980651855469e-05,
				-0.2691418528556824
			],
			"type":"VEC3"
		},
		{
			"bufferView":1,
			"componentType":5126,
			"count":23927,
			"type":"VEC3"
		},
		{
			"bufferView":2,
			"componentType":5126,
			"count":23927,
			"type":"VEC2"
		},
		{
			"bufferView":3,
			"componentType":5126,
			"count":23927,
			"type":"VEC2"
		},
		{
			"bufferView":4,
			"componentType":5126,
			"count":23927,
			"type":"VEC2"
		},
		{
			"bufferView":5,
			"componentType":5126,
			"count":23927,
			"type":"VEC2"
		},
		{
			"bufferView":6,
			"componentType":5123,
			"count":23927,
			"normalized":true,
			"type":"VEC4"
		},
		{
			"bufferView":7,
			"componentType":5123,
			"count":23927,
			"normalized":true,
			"type":"VEC4"
		},
		{
			"bufferView":8,
			"componentType":5123,
			"count":23927,
			"normalized":true,
			"type":"VEC4"
		},
		{
			"bufferView":9,
			"componentType":5123,
			"count":23927,
			"normalized":true,
			"type":"VEC4"
		},
		{
			"bufferView":10,
			"componentType":5123,
			"count":23927,
			"normalized":true,
			"type":"VEC4"
		},
		{
			"bufferView":11,
			"componentType":5123,
			"count":23927,
			"normalized":true,
			"type":"VEC4"
		},
		{
			"bufferView":12,
			"componentType":5121,
			"count":23927,
			"type":"VEC4"
		},
		{
			"bufferView":13,
			"componentType":5126,
			"count":23927,
			"type":"VEC4"
		},
		{
			"bufferView":14,
			"componentType":5123,
			"count":78810,
			"type":"SCALAR"
		},
		{
			"bufferView":15,
			"componentType":5126,
			"count":105,
			"max":[
				0.19217899441719055,
				0.5194406509399414,
				0.24918001890182495
			],
			"min":[
				-0.19217899441719055,
				0.23490634560585022,
				0.2150695025920868
			],
			"type":"VEC3"
		},
		{
			"bufferView":16,
			"componentType":5126,
			"count":105,
			"type":"VEC3"
		},
		{
			"bufferView":17,
			"componentType":5126,
			"count":105,
			"type":"VEC2"
		},
		{
			"bufferView":18,
			"componentType":5126,
			"count":105,
			"type":"VEC2"
		},
		{
			"bufferView":19,
			"componentType":5126,
			"count":105,
			"type":"VEC2"
		},
		{
			"bufferView":20,
			"componentType":5126,
			"count":105,
			"type":"VEC2"
		},
		{
			"bufferView":21,
			"componentType":5123,
			"count":105,
			"normalized":true,
			"type":"VEC4"
		},
		{
			"bufferView":22,
			"componentType":5123,
			"count":105,
			"normalized":true,
			"type":"VEC4"
		},
		{
			"bufferView":23,
			"componentType":5123,
			"count":105,
			"normalized":true,
			"type":"VEC4"
		},
		{
			"bufferView":24,
			"componentType":5123,
			"count":105,
			"normalized":true,
			"type":"VEC4"
		},
		{
			"bufferView":25,
			"componentType":5123,
			"count":105,
			"normalized":true,
			"type":"VEC4"
		},
		{
			"bufferView":26,
			"componentType":5123,
			"count":105,
			"normalized":true,
			"type":"VEC4"
		},
		{
			"bufferView":27,
			"componentType":5121,
			"count":105,
			"type":"VEC4"
		},
		{
			"bufferView":28,
			"componentType":5126,
			"count":105,
			"type":"VEC4"
		},
		{
			"bufferView":29,
			"componentType":5123,
			"count":528,
			"type":"SCALAR"
		},
		{
			"bufferView":30,
			"componentType":5126,
			"count":105,
			"max":[
				0.19217899441719055,
				0.5194406509399414,
				0.24339261651039124
			],
			"min":[
				-0.19217899441719055,
				0.23490634560585022,
				0.20928210020065308
			],
			"type":"VEC3"
		},
		{
			"bufferView":31,
			"componentType":5126,
			"count":105,
			"type":"VEC3"
		},
		{
			"bufferView":32,
			"componentType":5126,
			"count":105,
			"type":"VEC2"
		},
		{
			"bufferView":33,
			"componentType":5126,
			"count":105,
			"type":"VEC2"
		},
		{
			"bufferView":34,
			"componentType":5126,
			"count":105,
			"type":"VEC2"
		},
		{
			"bufferView":35,
			"componentType":5126,
			"count":105,
			"type":"VEC2"
		},
		{
			"bufferView":36,
			"componentType":5123,
			"count":105,
			"normalized":true,
			"type":"VEC4"
		},
		{
			"bufferView":37,
			"componentType":5123,
			"count":105,
			"normalized":true,
			"type":"VEC4"
		},
		{
			"bufferView":38,
			"componentType":5123,
			"count":105,
			"normalized":true,
			"type":"VEC4"
		},
		{
			"bufferView":39,
			"componentType":5123,
			"count":105,
			"normalized":true,
			"type":"VEC4"
		},
		{
			"bufferView":40,
			"componentType":5123,
			"count":105,
			"normalized":true,
			"type":"VEC4"
		},
		{
			"bufferView":41,
			"componentType":5123,
			"count":105,
			"normalized":true,
			"type":"VEC4"
		},
		{
			"bufferView":42,
			"componentType":5121,
			"count":105,
			"type":"VEC4"
		},
		{
			"bufferView":43,
			"componentType":5126,
			"count":105,
			"type":"VEC4"
		},
		{
			"bufferView":44,
			"componentType":5123,
			"count":528,
			"type":"SCALAR"
		},
		{
			"bufferView":45,
			"componentType":5126,
			"count":34,
			"type":"MAT4"
		},
		{
			"bufferView":46,
			"componentType":5126,
			"count":5894,
			"max":[
				0.26039648056030273,
				0.6388933658599854,
				0.27116724848747253
			],
			"min":[
				-0.26039648056030273,
				-6.937980651855469e-05,
				-0.2691418528556824
			],
			"type":"VEC3"
		},
		{
			"bufferView":47,
			"componentType":5126,
			"count":5894,
			"type":"VEC3"
		},
		{
			"bufferView":48,
			"componentType":5126,
			"count":5894,
			"type":"VEC2"
		},
		{
			"bufferView":49,
			"componentType":5126,
			"count":5894,
			"type":"VEC2"
		},
		{
			"bufferView":50,
			"componentType":5126,
			"count":5894,
			"type":"VEC2"
		},
		{
			"bufferView":51,
			"componentType":5121,
			"count":5894,
			"normalized":true,
			"type":"VEC4"
		},
		{
			"bufferView":52,
			"componentType":5123,
			"count":5894,
			"normalized":true,
			"type":"VEC4"
		},
		{
			"bufferView":53,
			"componentType":5121,
			"count":5894,
			"type":"VEC4"
		},
		{
			"bufferView":54,
			"componentType":5126,
			"count":5894,
			"type":"VEC4"
		},
		{
			"bufferView":55,
			"componentType":5123,
			"count":22560,
			"type":"SCALAR"
		},
		{
			"bufferView":56,
			"componentType":5126,
			"count":105,
			"max":[
				0.19217899441719055,
				0.5194406509399414,
				0.24339261651039124
			],
			"min":[
				-0.19217899441719055,
				0.23490634560585022,
				0.20928210020065308
			],
			"type":"VEC3"
		},
		{
			"bufferView":57,
			"componentType":5126,
			"count":105,
			"type":"VEC3"
		},
		{
			"bufferView":58,
			"componentType":5126,
			"count":105,
			"type":"VEC2"
		},
		{
			"bufferView":59,
			"componentType":5126,
			"count":105,
			"type":"VEC2"
		},
		{
			"bufferView":60,
			"componentType":5126,
			"count":105,
			"type":"VEC2"
		},
		{
			"bufferView":61,
			"componentType":5121,
			"count":105,
			"normalized":true,
			"type":"VEC4"
		},
		{
			"bufferView":62,
			"componentType":5123,
			"count":105,
			"normalized":true,
			"type":"VEC4"
		},
		{
			"bufferView":63,
			"componentType":5121,
			"count":105,
			"type":"VEC4"
		},
		{
			"bufferView":64,
			"componentType":5126,
			"count":105,
			"type":"VEC4"
		},
		{
			"bufferView":65,
			"componentType":5123,
			"count":528,
			"type":"SCALAR"
		},
		{
			"bufferView":66,
			"componentType":5126,
			"count":105,
			"max":[
				0.19217899441719055,
				0.5194406509399414,
				0.24918001890182495
			],
			"min":[
				-0.19217899441719055,
				0.23490634560585022,
				0.2150695025920868
			],
			"type":"VEC3"
		},
		{
			"bufferView":67,
			"componentType":5126,
			"count":105,
			"type":"VEC3"
		},
		{
			"bufferView":68,
			"componentType":5126,
			"count":105,
			"type":"VEC2"
		},
		{
			"bufferView":69,
			"componentType":5126,
			"count":105,
			"type":"VEC2"
		},
		{
			"bufferView":70,
			"componentType":5126,
			"count":105,
			"type":"VEC2"
		},
		{
			"bufferView":71,
			"componentType":5121,
			"count":105,
			"normalized":true,
			"type":"VEC4"
		},
		{
			"bufferView":72,
			"componentType":5123,
			"count":105,
			"normalized":true,
			"type":"VEC4"
		},
		{
			"bufferView":73,
			"componentType":5121,
			"count":105,
			"type":"VEC4"
		},
		{
			"bufferView":74,
			"componentType":5126,
			"count":105,
			"type":"VEC4"
		},
		{
			"bufferView":75,
			"componentType":5126,
			"count":5047,
			"max":[
				0.26039648056030273,
				0.6388933658599854,
				0.27116724848747253
			],
			"min":[
				-0.26039648056030273,
				-6.937980651855469e-05,
				-0.2691418528556824
			],
			"type":"VEC3"
		},
		{
			"bufferView":76,
			"componentType":5126,
			"count":5047,
			"type":"VEC3"
		},
		{
			"bufferView":77,
			"componentType":5126,
			"count":5047,
			"type":"VEC2"
		},
		{
			"bufferView":78,
			"componentType":5126,
			"count":5047,
			"type":"VEC2"
		},
		{
			"bufferView":79,
			"componentType":5126,
			"count":5047,
			"type":"VEC2"
		},
		{
			"bufferView":80,
			"componentType":5121,
			"count":5047,
			"normalized":true,
			"type":"VEC4"
		},
		{
			"bufferView":81,
			"componentType":5123,
			"count":5047,
			"normalized":true,
			"type":"VEC4"
		},
		{
			"bufferView":82,
			"componentType":5121,
			"count":5047,
			"type":"VEC4"
		},
		{
			"bufferView":83,
			"componentType":5126,
			"count":5047,
			"type":"VEC4"
		},
		{
			"bufferView":84,
			"componentType":5123,
			"count":18318,
			"type":"SCALAR"
		},
		{
			"bufferView":85,
			"componentType":5126,
			"count":105,
			"max":[
				0.19217899441719055,
				0.5194406509399414,
				0.24339261651039124
			],
			"min":[
				-0.19217899441719055,
				0.23490634560585022,
				0.20928210020065308
			],
			"type":"VEC3"
		},
		{
			"bufferView":86,
			"componentType":5126,
			"count":105,
			"type":"VEC3"
		},
		{
			"bufferView":87,
			"componentType":5126,
			"count":105,
			"type":"VEC2"
		},
		{
			"bufferView":88,
			"componentType":5126,
			"count":105,
			"type":"VEC2"
		},
		{
			"bufferView":89,
			"componentType":5126,
			"count":105,
			"type":"VEC2"
		},
		{
			"bufferView":90,
			"componentType":5121,
			"count":105,
			"normalized":true,
			"type":"VEC4"
		},
		{
			"bufferView":91,
			"componentType":5123,
			"count":105,
			"normalized":true,
			"type":"VEC4"
		},
		{
			"bufferView":92,
			"componentType":5121,
			"count":105,
			"type":"VEC4"
		},
		{
			"bufferView":93,
			"componentType":5126,
			"count":105,
			"type":"VEC4"
		},
		{
			"bufferView":94,
			"componentType":5126,
			"count":105,
			"max":[
				0.19217899441719055,
				0.5194406509399414,
				0.24918001890182495
			],
			"min":[
				-0.19217899441719055,
				0.23490634560585022,
				0.2150695025920868
			],
			"type":"VEC3"
		},
		{
			"bufferView":95,
			"componentType":5126,
			"count":105,
			"type":"VEC3"
		},
		{
			"bufferView":96,
			"componentType":5126,
			"count":105,
			"type":"VEC2"
		},
		{
			"bufferView":97,
			"componentType":5126,
			"count":105,
			"type":"VEC2"
		},
		{
			"bufferView":98,
			"componentType":5126,
			"count":105,
			"type":"VEC2"
		},
		{
			"bufferView":99,
			"componentType":5121,
			"count":105,
			"normalized":true,
			"type":"VEC4"
		},
		{
			"bufferView":100,
			"componentType":5123,
			"count":105,
			"normalized":true,
			"type":"VEC4"
		},
		{
			"bufferView":101,
			"componentType":5121,
			"count":105,
			"type":"VEC4"
		},
		{
			"bufferView":102,
			"componentType":5126,
			"count":105,
			"type":"VEC4"
		},
		{
			"bufferView":103,
			"componentType":5126,
			"count":3400,
			"max":[
				0.26039648056030273,
				0.6388933658599854,
				0.27116724848747253
			],
			"min":[
				-0.26039648056030273,
				-6.937980651855469e-05,
				-0.26914182305336
			],
			"type":"VEC3"
		},
		{
			"bufferView":104,
			"componentType":5126,
			"count":3400,
			"type":"VEC3"
		},
		{
			"bufferView":105,
			"componentType":5126,
			"count":3400,
			"type":"VEC2"
		},
		{
			"bufferView":106,
			"componentType":5126,
			"count":3400,
			"type":"VEC2"
		},
		{
			"bufferView":107,
			"componentType":5126,
			"count":3400,
			"type":"VEC2"
		},
		{
			"bufferView":108,
			"componentType":5121,
			"count":3400,
			"normalized":true,
			"type":"VEC4"
		},
		{
			"bufferView":109,
			"componentType":5123,
			"count":3400,
			"normalized":true,
			"type":"VEC4"
		},
		{
			"bufferView":110,
			"componentType":5121,
			"count":3400,
			"type":"VEC4"
		},
		{
			"bufferView":111,
			"componentType":5126,
			"count":3400,
			"type":"VEC4"
		},
		{
			"bufferView":112,
			"componentType":5123,
			"count":10596,
			"type":"SCALAR"
		},
		{
			"bufferView":113,
			"componentType":5126,
			"count":44,
			"max":[
				0.19102323055267334,
				0.5185830593109131,
				0.23910018801689148
			],
			"min":[
				-0.19102323055267334,
				0.23576386272907257,
				0.20785704255104065
			],
			"type":"VEC3"
		},
		{
			"bufferView":114,
			"componentType":5126,
			"count":44,
			"type":"VEC3"
		},
		{
			"bufferView":115,
			"componentType":5126,
			"count":44,
			"type":"VEC2"
		},
		{
			"bufferView":116,
			"componentType":5126,
			"count":44,
			"type":"VEC2"
		},
		{
			"bufferView":117,
			"componentType":5126,
			"count":44,
			"type":"VEC2"
		},
		{
			"bufferView":118,
			"componentType":5121,
			"count":44,
			"normalized":true,
			"type":"VEC4"
		},
		{
			"bufferView":119,
			"componentType":5123,
			"count":44,
			"normalized":true,
			"type":"VEC4"
		},
		{
			"bufferView":120,
			"componentType":5121,
			"count":44,
			"type":"VEC4"
		},
		{
			"bufferView":121,
			"componentType":5126,
			"count":44,
			"type":"VEC4"
		},
		{
			"bufferView":122,
			"componentType":5123,
			"count":174,
			"type":"SCALAR"
		},
		{
			"bufferView":123,
			"componentType":5126,
			"count":44,
			"max":[
				0.19102323055267334,
				0.5185830593109131,
				0.24631266295909882
			],
			"min":[
				-0.19102323055267334,
				0.23576386272907257,
				0.20785704255104065
			],
			"type":"VEC3"
		},
		{
			"bufferView":124,
			"componentType":5126,
			"count":44,
			"type":"VEC3"
		},
		{
			"bufferView":125,
			"componentType":5126,
			"count":44,
			"type":"VEC2"
		},
		{
			"bufferView":126,
			"componentType":5126,
			"count":44,
			"type":"VEC2"
		},
		{
			"bufferView":127,
			"componentType":5126,
			"count":44,
			"type":"VEC2"
		},
		{
			"bufferView":128,
			"componentType":5121,
			"count":44,
			"normalized":true,
			"type":"VEC4"
		},
		{
			"bufferView":129,
			"componentType":5123,
			"count":44,
			"normalized":true,
			"type":"VEC4"
		},
		{
			"bufferView":130,
			"componentType":5121,
			"count":44,
			"type":"VEC4"
		},
		{
			"bufferView":131,
			"componentType":5126,
			"count":44,
			"type":"VEC4"
		},
		{
			"bufferView":132,
			"componentType":5123,
			"count":174,
			"type":"SCALAR"
		},
		{
			"bufferView":133,
			"componentType":5126,
			"count":6695,
			"max":[
				0.26039648056030273,
				0.6388933658599854,
				0.27116724848747253
			],
			"min":[
				-0.26039648056030273,
				-6.937980651855469e-05,
				-0.2691418528556824
			],
			"type":"VEC3"
		},
		{
			"bufferView":134,
			"componentType":5126,
			"count":6695,
			"type":"VEC3"
		},
		{
			"bufferView":135,
			"componentType":5126,
			"count":6695,
			"type":"VEC2"
		},
		{
			"bufferView":136,
			"componentType":5126,
			"count":6695,
			"type":"VEC2"
		},
		{
			"bufferView":137,
			"componentType":5126,
			"count":6695,
			"type":"VEC2"
		},
		{
			"bufferView":138,
			"componentType":5121,
			"count":6695,
			"normalized":true,
			"type":"VEC4"
		},
		{
			"bufferView":139,
			"componentType":5123,
			"count":6695,
			"normalized":true,
			"type":"VEC4"
		},
		{
			"bufferView":140,
			"componentType":5121,
			"count":6695,
			"type":"VEC4"
		},
		{
			"bufferView":141,
			"componentType":5126,
			"count":6695,
			"type":"VEC4"
		},
		{
			"bufferView":142,
			"componentType":5123,
			"count":26220,
			"type":"SCALAR"
		},
		{
			"bufferView":143,
			"componentType":5126,
			"count":105,
			"max":[
				0.19217899441719055,
				0.5194406509399414,
				0.24339261651039124
			],
			"min":[
				-0.19217899441719055,
				0.23490634560585022,
				0.20928210020065308
			],
			"type":"VEC3"
		},
		{
			"bufferView":144,
			"componentType":5126,
			"count":105,
			"type":"VEC3"
		},
		{
			"bufferView":145,
			"componentType":5126,
			"count":105,
			"type":"VEC2"
		},
		{
			"bufferView":146,
			"componentType":5126,
			"count":105,
			"type":"VEC2"
		},
		{
			"bufferView":147,
			"componentType":5126,
			"count":105,
			"type":"VEC2"
		},
		{
			"bufferView":148,
			"componentType":5121,
			"count":105,
			"normalized":true,
			"type":"VEC4"
		},
		{
			"bufferView":149,
			"componentType":5123,
			"count":105,
			"normalized":true,
			"type":"VEC4"
		},
		{
			"bufferView":150,
			"componentType":5121,
			"count":105,
			"type":"VEC4"
		},
		{
			"bufferView":151,
			"componentType":5126,
			"count":105,
			"type":"VEC4"
		},
		{
			"bufferView":152,
			"componentType":5126,
			"count":105,
			"max":[
				0.19217899441719055,
				0.5194406509399414,
				0.24918001890182495
			],
			"min":[
				-0.19217899441719055,
				0.23490634560585022,
				0.2150695025920868
			],
			"type":"VEC3"
		},
		{
			"bufferView":153,
			"componentType":5126,
			"count":105,
			"type":"VEC3"
		},
		{
			"bufferView":154,
			"componentType":5126,
			"count":105,
			"type":"VEC2"
		},
		{
			"bufferView":155,
			"componentType":5126,
			"count":105,
			"type":"VEC2"
		},
		{
			"bufferView":156,
			"componentType":5126,
			"count":105,
			"type":"VEC2"
		},
		{
			"bufferView":157,
			"componentType":5121,
			"count":105,
			"normalized":true,
			"type":"VEC4"
		},
		{
			"bufferView":158,
			"componentType":5123,
			"count":105,
			"normalized":true,
			"type":"VEC4"
		},
		{
			"bufferView":159,
			"componentType":5121,
			"count":105,
			"type":"VEC4"
		},
		{
			"bufferView":160,
			"componentType":5126,
			"count":105,
			"type":"VEC4"
		},
		{
			"bufferView":161,
			"componentType":5126,
			"count":436,
			"max":[
				0.24845600128173828,
				0.6433796882629395,
				0.27942630648612976
			],
			"min":[
				-0.24845600128173828,
				0.0011155903339385986,
				-0.27942630648612976
			],
			"type":"VEC3"
		},
		{
			"bufferView":162,
			"componentType":5126,
			"count":436,
			"type":"VEC3"
		},
		{
			"bufferView":163,
			"componentType":5121,
			"count":436,
			"type":"VEC4"
		},
		{
			"bufferView":164,
			"componentType":5126,
			"count":436,
			"type":"VEC4"
		},
		{
			"bufferView":165,
			"componentType":5123,
			"count":720,
			"type":"SCALAR"
		}
	],
	"bufferViews":[
		{
			"buffer":0,
			"byteLength":287124,
			"byteOffset":0,
			"target":34962
		},
		{
			"buffer":0,
			"byteLength":287124,
			"byteOffset":287124,
			"target":34962
		},
		{
			"buffer":0,
			"byteLength":191416,
			"byteOffset":574248,
			"target":34962
		},
		{
			"buffer":0,
			"byteLength":191416,
			"byteOffset":765664,
			"target":34962
		},
		{
			"buffer":0,
			"byteLength":191416,
			"byteOffset":957080,
			"target":34962
		},
		{
			"buffer":0,
			"byteLength":191416,
			"byteOffset":1148496,
			"target":34962
		},
		{
			"buffer":0,
			"byteLength":191416,
			"byteOffset":1339912,
			"target":34962
		},
		{
			"buffer":0,
			"byteLength":191416,
			"byteOffset":1531328,
			"target":34962
		},
		{
			"buffer":0,
			"byteLength":191416,
			"byteOffset":1722744,
			"target":34962
		},
		{
			"buffer":0,
			"byteLength":191416,
			"byteOffset":1914160,
			"target":34962
		},
		{
			"buffer":0,
			"byteLength":191416,
			"byteOffset":2105576,
			"target":34962
		},
		{
			"buffer":0,
			"byteLength":191416,
			"byteOffset":2296992,
			"target":34962
		},
		{
			"buffer":0,
			"byteLength":95708,
			"byteOffset":2488408,
			"target":34962
		},
		{
			"buffer":0,
			"byteLength":382832,
			"byteOffset":2584116,
			"target":34962
		},
		{
			"buffer":0,
			"byteLength":157620,
			"byteOffset":2966948,
			"target":34963
		},
		{
			"buffer":0,
			"byteLength":1260,
			"byteOffset":3124568,
			"target":34962
		},
		{
			"buffer":0,
			"byteLength":1260,
			"byteOffset":3125828,
			"target":34962
		},
		{
			"buffer":0,
			"byteLength":840,
			"byteOffset":3127088,
			"target":34962
		},
		{
			"buffer":0,
			"byteLength":840,
			"byteOffset":3127928,
			"target":34962
		},
		{
			"buffer":0,
			"byteLength":840,
			"byteOffset":3128768,
			"target":34962
		},
		{
			"buffer":0,
			"byteLength":840,
			"byteOffset":3129608,
			"target":34962
		},
		{
			"buffer":0,
			"byteLength":840,
			"byteOffset":3130448,
			"target":34962
		},
		{
			"buffer":0,
			"byteLength":840,
			"byteOffset":3131288,
			"target":34962
		},
		{
			"buffer":0,
			"byteLength":840,
			"byteOffset":3132128,
			"target":34962
		},
		{
			"buffer":0,
			"byteLength":840,
			"byteOffset":3132968,
			"target":34962
		},
		{
			"buffer":0,
			"byteLength":840,
			"byteOffset":3133808,
			"target":34962
		},
		{
			"buffer":0,
			"byteLength":840,
			"byteOffset":3134648,
			"target":34962
		},
		{
			"buffer":0,
			"byteLength":420,
			"byteOffset":3135488,
			"target":34962
		},
		{
			"buffer":0,
			"byteLength":1680,
			"byteOffset":3135908,
			"target":34962
		},
		{
			"buffer":0,
			"byteLength":1056,
			"byteOffset":3137588,
			"target":34963
		},
		{
			"buffer":0,
			"byteLength":1260,
			"byteOffset":3138644,
			"target":34962
		},
		{
			"buffer":0,
			"byteLength":1260,
			"byteOffset":3139904,
			"target":34962
		},
		{
			"buffer":0,
			"byteLength":840,
			"byteOffset":3141164,
			"target":34962
		},
		{
			"buffer":0,
			"byteLength":840,
			"byteOffset":3142004,
			"target":34962
		},
		{
			"buffer":0,
			"byteLength":840,
			"byteOffset":3142844,
			"target":34962
		},
		{
			"buffer":0,
			"byteLength":840,
			"byteOffset":3143684,
			"target":34962
		},
		{
			"buffer":0,
			"byteLength":840,
			"byteOffset":3144524,
			"target":34962
		},
		{
			"buffer":0,
			"byteLength":840,
			"byteOffset":3145364,
			"target":34962
		},
		{
			"buffer":0,
			"byteLength":840,
			"byteOffset":3146204,
			"target":34962
		},
		{
			"buffer":0,
			"byteLength":840,
			"byteOffset":3147044,
			"target":34962
		},
		{
			"buffer":0,
			"byteLength":840,
			"byteOffset":3147884,
			"target":34962
		},
		{
			"buffer":0,
			"byteLength":840,
			"byteOffset":3148724,
			"target":34962
		},
		{
			"buffer":0,
			"byteLength":420,
			"byteOffset":3149564,
			"target":34962
		},
		{
			"buffer":0,
			"byteLength":1680,
			"byteOffset":3149984,
			"target":34962
		},
		{
			"buffer":0,
			"byteLength":1056,
			"byteOffset":3151664,
			"target":34963
		},
		{
			"buffer":0,
			"byteLength":2176,
			"byteOffset":3152720
		},
		{
			"buffer":0,
			"byteLength":70728,
			"byteOffset":3154896,
			"target":34962
		},
		{
			"buffer":0,
			"byteLength":70728,
			"byteOffset":3225624,
			"target":34962
		},
		{
			"buffer":0,
			"byteLength":47152,
			"byteOffset":3296352,
			"target":34962
		},
		{
			"buffer":0,
			"byteLength":47152,
			"byteOffset":3343504,
			"target":34962
		},
		{
			"buffer":0,
			"byteLength":47152,
			"byteOffset":3390656,
			"target":34962
		},
		{
			"buffer":0,
			"byteLength":23576,
			"byteOffset":3437808,
			"target":34962
		},
		{
			"buffer":0,
			"byteLength":47152,
			"byteOffset":3461384,
			"target":34962
		},
		{
			"buffer":0,
			"byteLength":23576,
			"byteOffset":3508536,
			"target":34962
		},
		{
			"buffer":0,
			"byteLength":94304,
			"byteOffset":3532112,
			"target":34962
		},
		{
			"buffer":0,
			"byteLength":45120,
			"byteOffset":3626416,
			"target":34963
		},
		{
			"buffer":0,
			"byteLength":1260,
			"byteOffset":3671536,
			"target":34962
		},
		{
			"buffer":0,
			"byteLength":1260,
			"byteOffset":3672796,
			"target":34962
		},
		{
			"buffer":0,
			"byteLength":840,
			"byteOffset":3674056,
			"target":34962
		},
		{
			"buffer":0,
			"byteLength":840,
			"byteOffset":3674896,
			"target":34962
		},
		{
			"buffer":0,
			"byteLength":840,
			"byteOffset":3675736,
			"target":34962
		},
		{
			"buffer":0,
			"byteLength":420,
			"byteOffset":3676576,
			"target":34962
		},
		{
			"buffer":0,
			"byteLength":840,
			"byteOffset":3676996,
			"target":34962
		},
		{
			"buffer":0,
			"byteLength":420,
			"byteOffset":3677836,
			"target":34962
		},
		{
			"buffer":0,
			"byteLength":1680,
			"byteOffset":3678256,
			"target":34962
		},
		{
			"buffer":0,
			"byteLength":1056,
			"byteOffset":3679936,
			"target":34963
		},
		{
			"buffer":0,
			"byteLength":1260,
			"byteOffset":3680992,
			"target":34962
		},
		{
			"buffer":0,
			"byteLength":1260,
			"byteOffset":3682252,
			"target":34962
		},
		{
			"buffer":0,
			"byteLength":840,
			"byteOffset":3683512,
			"target":34962
		},
		{
			"buffer":0,
			"byteLength":840,
			"byteOffset":3684352,
			"target":34962
		},
		{
			"buffer":0,
			"byteLength":840,
			"byteOffset":3685192,
			"target":34962
		},
		{
			"buffer":0,
			"byteLength":420,
			"byteOffset":3686032,
			"target":34962
		},
		{
			"buffer":0,
			"byteLength":840,
			"byteOffset":3686452,
			"target":34962
		},
		{
			"buffer":0,
			"byteLength":420,
			"byteOffset":3687292,
			"target":34962
		},
		{
			"buffer":0,
			"byteLength":1680,
			"byteOffset":3687712,
			"target":34962
		},
		{
			"buffer":0,
			"byteLength":60564,
			"byteOffset":3689392,
			"target":34962
		},
		{
			"buffer":0,
			"byteLength":60564,
			"byteOffset":3749956,
			"target":34962
		},
		{
			"buffer":0,
			"byteLength":40376,
			"byteOffset":3810520,
			"target":34962
		},
		{
			"buffer":0,
			"byteLength":40376,
			"byteOffset":3850896,
			"target":34962
		},
		{
			"buffer":0,
			"byteLength":40376,
			"byteOffset":3891272,
			"target":34962
		},
		{
			"buffer":0,
			"byteLength":20188,
			"byteOffset":3931648,
			"target":34962
		},
		{
			"buffer":0,
			"byteLength":40376,
			"byteOffset":3951836,
			"target":34962
		},
		{
			"buffer":0,
			"byteLength":20188,
			"byteOffset":3992212,
			"target":34962
		},
		{
			"buffer":0,
			"byteLength":80752,
			"byteOffset":4012400,
			"target":34962
		},
		{
			"buffer":0,
			"byteLength":36636,
			"byteOffset":4093152,
			"target":34963
		},
		{
			"buffer":0,
			"byteLength":1260,
			"byteOffset":4129788,
			"target":34962
		},
		{
			"buffer":0,
			"byteLength":1260,
			"byteOffset":4131048,
			"target":34962
		},
		{
			"buffer":0,
			"byteLength":840,
			"byteOffset":4132308,
			"target":34962
		},
		{
			"buffer":0,
			"byteLength":840,
			"byteOffset":4133148,
			"target":34962
		},
		{
			"buffer":0,
			"byteLength":840,
			"byteOffset":4133988,
			"target":34962
		},
		{
			"buffer":0,
			"byteLength":420,
			"byteOffset":4134828,
			"target":34962
		},
		{
			"buffer":0,
			"byteLength":840,
			"byteOffset":4135248,
			"target":34962
		},
		{
			"buffer":0,
			"byteLength":420,
			"byteOffset":4136088,
			"target":34962
		},
		{
			"buffer":0,
			"byteLength":1680,
			"byteOffset":4136508,
			"target":34962
		},
		{
			"buffer":0,
			"byteLength":1260,
			"byteOffset":4138188,
			"target":34962
		},
		{
			"buffer":0,
			"byteLength":1260,
			"byteOffset":4139448,
			"target":34962
		},
		{
			"buffer":0,
			"byteLength":840,
			"byteOffset":4140708,
			"target":34962
		},
		{
			"buffer":0,
			"byteLength":840,
			"byteOffset":4141548,
			"target":34962
		},
		{
			"buffer":0,
			"byteLength":840,
			"byteOffset":4142388,
			"target":34962
		},
		{
			"buffer":0,
			"byteLength":420,
			"byteOffset":4143228,
			"target":34962
		},
		{
			"buffer":0,
			"byteLength":840,
			"byteOffset":4143648,
			"target":34962
		},
		{
			"buffer":0,
			"byteLength":420,
			"byteOffset":4144488,
			"target":34962
		},
		{
			"buffer":0,
			"byteLength":1680,
			"byteOffset":4144908,
			"target":34962
		},
		{
			"buffer":0,
			"byteLength":40800,
			"byteOffset":4146588,
			"target":34962
		},
		{
			"buffer":0,
			"byteLength":40800,
			"byteOffset":4187388,
			"target":34962
		},
		{
			"buffer":0,
			"byteLength":27200,
			"byteOffset":4228188,
			"target":34962
		},
		{
			"buffer":0,
			"byteLength":27200,
			"byteOffset":4255388,
			"target":34962
		},
		{
			"buffer":0,
			"byteLength":27200,
			"byteOffset":4282588,
			"target":34962
		},
		{
			"buffer":0,
			"byteLength":13600,
			"byteOffset":4309788,
			"target":34962
		},
		{
			"buffer":0,
			"byteLength":27200,
			"byteOffset":4323388,
			"target":34962
		},
		{
			"buffer":0,
			"byteLength":13600,
			"byteOffset":4350588,
			"target":34962
		},
		{
			"buffer":0,
			"byteLength":54400,
			"byteOffset":4364188,
			"target":34962
		},
		{
			"buffer":0,
			"byteLength":21192,
			"byteOffset":4418588,
			"target":34963
		},
		{
			"buffer":0,
			"byteLength":528,
			"byteOffset":4439780,
			"target":34962
		},
		{
			"buffer":0,
			"byteLength":528,
			"byteOffset":4440308,
			"target":34962
		},
		{
			"buffer":0,
			"byteLength":352,
			"byteOffset":4440836,
			"target":34962
		},
		{
			"buffer":0,
			"byteLength":352,
			"byteOffset":4441188,
			"target":34962
		},
		{
			"buffer":0,
			"byteLength":352,
			"byteOffset":4441540,
			"target":34962
		},
		{
			"buffer":0,
			"byteLength":176,
			"byteOffset":4441892,
			"target":34962
		},
		{
			"buffer":0,
			"byteLength":352,
			"byteOffset":4442068,
			"target":34962
		},
		{
			"buffer":0,
			"byteLength":176,
			"byteOffset":4442420,
			"target":34962
		},
		{
			"buffer":0,
			"byteLength":704,
			"byteOffset":4442596,
			"target":34962
		},
		{
			"buffer":0,
			"byteLength":348,
			"byteOffset":4443300,
			"target":34963
		},
		{
			"buffer":0,
			"byteLength":528,
			"byteOffset":4443648,
			"target":34962
		},
		{
			"buffer":0,
			"byteLength":528,
			"byteOffset":4444176,
			"target":34962
		},
		{
			"buffer":0,
			"byteLength":352,
			"byteOffset":4444704,
			"target":34962
		},
		{
			"buffer":0,
			"byteLength":352,
			"byteOffset":4445056,
			"target":34962
		},
		{
			"buffer":0,
			"byteLength":352,
			"byteOffset":4445408,
			"target":34962
		},
		{
			"buffer":0,
			"byteLength":176,
			"byteOffset":4445760,
			"target":34962
		},
		{
			"buffer":0,
			"byteLength":352,
			"byteOffset":4445936,
			"target":34962
		},
		{
			"buffer":0,
			"byteLength":176,
			"byteOffset":4446288,
			"target":34962
		},
		{
			"buffer":0,
			"byteLength":704,
			"byteOffset":4446464,
			"target":34962
		},
		{
			"buffer":0,
			"byteLength":348,
			"byteOffset":4447168,
			"target":34963
		},
		{
			"buffer":0,
			"byteLength":80340,
			"byteOffset":4447516,
			"target":34962
		},
		{
			"buffer":0,
			"byteLength":80340,
			"byteOffset":4527856,
			"target":34962
		},
		{
			"buffer":0,
			"byteLength":53560,
			"byteOffset":4608196,
			"target":34962
		},
		{
			"buffer":0,
			"byteLength":53560,
			"byteOffset":4661756,
			"target":34962
		},
		{
			"buffer":0,
			"byteLength":53560,
			"byteOffset":4715316,
			"target":34962
		},
		{
			"buffer":0,
			"byteLength":26780,
			"byteOffset":4768876,
			"target":34962
		},
		{
			"buffer":0,
			"byteLength":53560,
			"byteOffset":4795656,
			"target":34962
		},
		{
			"buffer":0,
			"byteLength":26780,
			"byteOffset":4849216,
			"target":34962
		},
		{
			"buffer":0,
			"byteLength":107120,
			"byteOffset":4875996,
			"target":34962
		},
		{
			"buffer":0,
			"byteLength":52440,
			"byteOffset":4983116,
			"target":34963
		},
		{
			"buffer":0,
			"byteLength":1260,
			"byteOffset":5035556,
			"target":34962
		},
		{
			"buffer":0,
			"byteLength":1260,
			"byteOffset":5036816,
			"target":34962
		},
		{
			"buffer":0,
			"byteLength":840,
			"byteOffset":5038076,
			"target":34962
		},
		{
			"buffer":0,
			"byteLength":840,
			"byteOffset":5038916,
			"target":34962
		},
		{
			"buffer":0,
			"byteLength":840,
			"byteOffset":5039756,
			"target":34962
		},
		{
			"buffer":0,
			"byteLength":420,
			"byteOffset":5040596,
			"target":34962
		},
		{
			"buffer":0,
			"byteLength":840,
			"byteOffset":5041016,
			"target":34962
		},
		{
			"buffer":0,
			"byteLength":420,
			"byteOffset":5041856,
			"target":34962
		},
		{
			"buffer":0,
			"byteLength":1680,
			"byteOffset":5042276,
			"target":34962
		},
		{
			"buffer":0,
			"byteLength":1260,
			"byteOffset":5043956,
			"target":34962
		},
		{
			"buffer":0,
			"byteLength":1260,
			"byteOffset":5045216,
			"target":34962
		},
		{
			"buffer":0,
			"byteLength":840,
			"byteOffset":5046476,
			"target":34962
		},
		{
			"buffer":0,
			"byteLength":840,
			"byteOffset":5047316,
			"target":34962
		},
		{
			"buffer":0,
			"byteLength":840,
			"byteOffset":5048156,
			"target":34962
		},
		{
			"buffer":0,
			"byteLength":420,
			"byteOffset":5048996,
			"target":34962
		},
		{
			"buffer":0,
			"byteLength":840,
			"byteOffset":5049416,
			"target":34962
		},
		{
			"buffer":0,
			"byteLength":420,
			"byteOffset":5050256,
			"target":34962
		},
		{
			"buffer":0,
			"byteLength":1680,
			"byteOffset":5050676,
			"target":34962
		},
		{
			"buffer":0,
			"byteLength":5232,
			"byteOffset":5052356,
			"target":34962
		},
		{
			"buffer":0,
			"byteLength":5232,
			"byteOffset":5057588,
			"target":34962
		},
		{
			"buffer":0,
			"byteLength":1744,
			"byteOffset":5062820,
			"target":34962
		},
		{
			"buffer":0,
			"byteLength":6976,
			"byteOffset":5064564,
			"target":34962
		},
		{
			"buffer":0,
			"byteLength":1440,
			"byteOffset":5071540,
			"target":34963
		}
	],
	"buffers":[
		{
			"byteLength":5072980,
			"uri":"3D%20Gum%20Bot.bin"
		}
	]
}
